%TF.GenerationSoftware,KiCad,Pcbnew,(6.0.0)*%
%TF.CreationDate,2022-01-02T13:01:26+02:00*%
%TF.ProjectId,shematic,7368656d-6174-4696-932e-6b696361645f,rev?*%
%TF.SameCoordinates,Original*%
%TF.FileFunction,Legend,Top*%
%TF.FilePolarity,Positive*%
%FSLAX46Y46*%
G04 Gerber Fmt 4.6, Leading zero omitted, Abs format (unit mm)*
G04 Created by KiCad (PCBNEW (6.0.0)) date 2022-01-02 13:01:26*
%MOMM*%
%LPD*%
G01*
G04 APERTURE LIST*
%ADD10C,0.150000*%
%ADD11C,0.120000*%
G04 APERTURE END LIST*
D10*
%TO.C,C3*%
X84144142Y-63539666D02*
X84191761Y-63587285D01*
X84239380Y-63730142D01*
X84239380Y-63825380D01*
X84191761Y-63968238D01*
X84096523Y-64063476D01*
X84001285Y-64111095D01*
X83810809Y-64158714D01*
X83667952Y-64158714D01*
X83477476Y-64111095D01*
X83382238Y-64063476D01*
X83287000Y-63968238D01*
X83239380Y-63825380D01*
X83239380Y-63730142D01*
X83287000Y-63587285D01*
X83334619Y-63539666D01*
X83239380Y-63206333D02*
X83239380Y-62587285D01*
X83620333Y-62920619D01*
X83620333Y-62777761D01*
X83667952Y-62682523D01*
X83715571Y-62634904D01*
X83810809Y-62587285D01*
X84048904Y-62587285D01*
X84144142Y-62634904D01*
X84191761Y-62682523D01*
X84239380Y-62777761D01*
X84239380Y-63063476D01*
X84191761Y-63158714D01*
X84144142Y-63206333D01*
%TO.C,A1*%
X75246666Y-65992285D02*
X75246666Y-65516095D01*
X75532380Y-66087523D02*
X74532380Y-65754190D01*
X75532380Y-65420857D01*
X75532380Y-64563714D02*
X75532380Y-65135142D01*
X75532380Y-64849428D02*
X74532380Y-64849428D01*
X74675238Y-64944666D01*
X74770476Y-65039904D01*
X74818095Y-65135142D01*
%TO.C,A2*%
X116879666Y-43894285D02*
X116879666Y-43418095D01*
X117165380Y-43989523D02*
X116165380Y-43656190D01*
X117165380Y-43322857D01*
X116260619Y-43037142D02*
X116213000Y-42989523D01*
X116165380Y-42894285D01*
X116165380Y-42656190D01*
X116213000Y-42560952D01*
X116260619Y-42513333D01*
X116355857Y-42465714D01*
X116451095Y-42465714D01*
X116593952Y-42513333D01*
X117165380Y-43084761D01*
X117165380Y-42465714D01*
%TO.C,A3*%
X91526666Y-43894285D02*
X91526666Y-43418095D01*
X91812380Y-43989523D02*
X90812380Y-43656190D01*
X91812380Y-43322857D01*
X90812380Y-43084761D02*
X90812380Y-42465714D01*
X91193333Y-42799047D01*
X91193333Y-42656190D01*
X91240952Y-42560952D01*
X91288571Y-42513333D01*
X91383809Y-42465714D01*
X91621904Y-42465714D01*
X91717142Y-42513333D01*
X91764761Y-42560952D01*
X91812380Y-42656190D01*
X91812380Y-42941904D01*
X91764761Y-43037142D01*
X91717142Y-43084761D01*
%TO.C,A4*%
X66206666Y-43894285D02*
X66206666Y-43418095D01*
X66492380Y-43989523D02*
X65492380Y-43656190D01*
X66492380Y-43322857D01*
X65825714Y-42560952D02*
X66492380Y-42560952D01*
X65444761Y-42799047D02*
X66159047Y-43037142D01*
X66159047Y-42418095D01*
%TO.C,C1*%
X36315333Y-46807142D02*
X36267714Y-46854761D01*
X36124857Y-46902380D01*
X36029619Y-46902380D01*
X35886761Y-46854761D01*
X35791523Y-46759523D01*
X35743904Y-46664285D01*
X35696285Y-46473809D01*
X35696285Y-46330952D01*
X35743904Y-46140476D01*
X35791523Y-46045238D01*
X35886761Y-45950000D01*
X36029619Y-45902380D01*
X36124857Y-45902380D01*
X36267714Y-45950000D01*
X36315333Y-45997619D01*
X37267714Y-46902380D02*
X36696285Y-46902380D01*
X36982000Y-46902380D02*
X36982000Y-45902380D01*
X36886761Y-46045238D01*
X36791523Y-46140476D01*
X36696285Y-46188095D01*
%TO.C,C2*%
X39330333Y-61411142D02*
X39282714Y-61458761D01*
X39139857Y-61506380D01*
X39044619Y-61506380D01*
X38901761Y-61458761D01*
X38806523Y-61363523D01*
X38758904Y-61268285D01*
X38711285Y-61077809D01*
X38711285Y-60934952D01*
X38758904Y-60744476D01*
X38806523Y-60649238D01*
X38901761Y-60554000D01*
X39044619Y-60506380D01*
X39139857Y-60506380D01*
X39282714Y-60554000D01*
X39330333Y-60601619D01*
X39711285Y-60601619D02*
X39758904Y-60554000D01*
X39854142Y-60506380D01*
X40092238Y-60506380D01*
X40187476Y-60554000D01*
X40235095Y-60601619D01*
X40282714Y-60696857D01*
X40282714Y-60792095D01*
X40235095Y-60934952D01*
X39663666Y-61506380D01*
X40282714Y-61506380D01*
%TO.C,C4*%
X56650142Y-65184666D02*
X56697761Y-65232285D01*
X56745380Y-65375142D01*
X56745380Y-65470380D01*
X56697761Y-65613238D01*
X56602523Y-65708476D01*
X56507285Y-65756095D01*
X56316809Y-65803714D01*
X56173952Y-65803714D01*
X55983476Y-65756095D01*
X55888238Y-65708476D01*
X55793000Y-65613238D01*
X55745380Y-65470380D01*
X55745380Y-65375142D01*
X55793000Y-65232285D01*
X55840619Y-65184666D01*
X56078714Y-64327523D02*
X56745380Y-64327523D01*
X55697761Y-64565619D02*
X56412047Y-64803714D01*
X56412047Y-64184666D01*
%TO.C,C5*%
X66938142Y-62904666D02*
X66985761Y-62952285D01*
X67033380Y-63095142D01*
X67033380Y-63190380D01*
X66985761Y-63333238D01*
X66890523Y-63428476D01*
X66795285Y-63476095D01*
X66604809Y-63523714D01*
X66461952Y-63523714D01*
X66271476Y-63476095D01*
X66176238Y-63428476D01*
X66081000Y-63333238D01*
X66033380Y-63190380D01*
X66033380Y-63095142D01*
X66081000Y-62952285D01*
X66128619Y-62904666D01*
X66033380Y-61999904D02*
X66033380Y-62476095D01*
X66509571Y-62523714D01*
X66461952Y-62476095D01*
X66414333Y-62380857D01*
X66414333Y-62142761D01*
X66461952Y-62047523D01*
X66509571Y-61999904D01*
X66604809Y-61952285D01*
X66842904Y-61952285D01*
X66938142Y-61999904D01*
X66985761Y-62047523D01*
X67033380Y-62142761D01*
X67033380Y-62380857D01*
X66985761Y-62476095D01*
X66938142Y-62523714D01*
%TO.C,C6*%
X105988142Y-68987666D02*
X106035761Y-69035285D01*
X106083380Y-69178142D01*
X106083380Y-69273380D01*
X106035761Y-69416238D01*
X105940523Y-69511476D01*
X105845285Y-69559095D01*
X105654809Y-69606714D01*
X105511952Y-69606714D01*
X105321476Y-69559095D01*
X105226238Y-69511476D01*
X105131000Y-69416238D01*
X105083380Y-69273380D01*
X105083380Y-69178142D01*
X105131000Y-69035285D01*
X105178619Y-68987666D01*
X105083380Y-68130523D02*
X105083380Y-68321000D01*
X105131000Y-68416238D01*
X105178619Y-68463857D01*
X105321476Y-68559095D01*
X105511952Y-68606714D01*
X105892904Y-68606714D01*
X105988142Y-68559095D01*
X106035761Y-68511476D01*
X106083380Y-68416238D01*
X106083380Y-68225761D01*
X106035761Y-68130523D01*
X105988142Y-68082904D01*
X105892904Y-68035285D01*
X105654809Y-68035285D01*
X105559571Y-68082904D01*
X105511952Y-68130523D01*
X105464333Y-68225761D01*
X105464333Y-68416238D01*
X105511952Y-68511476D01*
X105559571Y-68559095D01*
X105654809Y-68606714D01*
%TO.C,C10*%
X104210142Y-66161857D02*
X104257761Y-66209476D01*
X104305380Y-66352333D01*
X104305380Y-66447571D01*
X104257761Y-66590428D01*
X104162523Y-66685666D01*
X104067285Y-66733285D01*
X103876809Y-66780904D01*
X103733952Y-66780904D01*
X103543476Y-66733285D01*
X103448238Y-66685666D01*
X103353000Y-66590428D01*
X103305380Y-66447571D01*
X103305380Y-66352333D01*
X103353000Y-66209476D01*
X103400619Y-66161857D01*
X104305380Y-65209476D02*
X104305380Y-65780904D01*
X104305380Y-65495190D02*
X103305380Y-65495190D01*
X103448238Y-65590428D01*
X103543476Y-65685666D01*
X103591095Y-65780904D01*
X103305380Y-64590428D02*
X103305380Y-64495190D01*
X103353000Y-64399952D01*
X103400619Y-64352333D01*
X103495857Y-64304714D01*
X103686333Y-64257095D01*
X103924428Y-64257095D01*
X104114904Y-64304714D01*
X104210142Y-64352333D01*
X104257761Y-64399952D01*
X104305380Y-64495190D01*
X104305380Y-64590428D01*
X104257761Y-64685666D01*
X104210142Y-64733285D01*
X104114904Y-64780904D01*
X103924428Y-64828523D01*
X103686333Y-64828523D01*
X103495857Y-64780904D01*
X103400619Y-64733285D01*
X103353000Y-64685666D01*
X103305380Y-64590428D01*
%TO.C,C11*%
X97860142Y-66161857D02*
X97907761Y-66209476D01*
X97955380Y-66352333D01*
X97955380Y-66447571D01*
X97907761Y-66590428D01*
X97812523Y-66685666D01*
X97717285Y-66733285D01*
X97526809Y-66780904D01*
X97383952Y-66780904D01*
X97193476Y-66733285D01*
X97098238Y-66685666D01*
X97003000Y-66590428D01*
X96955380Y-66447571D01*
X96955380Y-66352333D01*
X97003000Y-66209476D01*
X97050619Y-66161857D01*
X97955380Y-65209476D02*
X97955380Y-65780904D01*
X97955380Y-65495190D02*
X96955380Y-65495190D01*
X97098238Y-65590428D01*
X97193476Y-65685666D01*
X97241095Y-65780904D01*
X97955380Y-64257095D02*
X97955380Y-64828523D01*
X97955380Y-64542809D02*
X96955380Y-64542809D01*
X97098238Y-64638047D01*
X97193476Y-64733285D01*
X97241095Y-64828523D01*
%TO.C,C12*%
X97672142Y-76601857D02*
X97719761Y-76649476D01*
X97767380Y-76792333D01*
X97767380Y-76887571D01*
X97719761Y-77030428D01*
X97624523Y-77125666D01*
X97529285Y-77173285D01*
X97338809Y-77220904D01*
X97195952Y-77220904D01*
X97005476Y-77173285D01*
X96910238Y-77125666D01*
X96815000Y-77030428D01*
X96767380Y-76887571D01*
X96767380Y-76792333D01*
X96815000Y-76649476D01*
X96862619Y-76601857D01*
X97767380Y-75649476D02*
X97767380Y-76220904D01*
X97767380Y-75935190D02*
X96767380Y-75935190D01*
X96910238Y-76030428D01*
X97005476Y-76125666D01*
X97053095Y-76220904D01*
X96862619Y-75268523D02*
X96815000Y-75220904D01*
X96767380Y-75125666D01*
X96767380Y-74887571D01*
X96815000Y-74792333D01*
X96862619Y-74744714D01*
X96957857Y-74697095D01*
X97053095Y-74697095D01*
X97195952Y-74744714D01*
X97767380Y-75316142D01*
X97767380Y-74697095D01*
%TO.C,C13*%
X63158142Y-67966357D02*
X63205761Y-68013976D01*
X63253380Y-68156833D01*
X63253380Y-68252071D01*
X63205761Y-68394928D01*
X63110523Y-68490166D01*
X63015285Y-68537785D01*
X62824809Y-68585404D01*
X62681952Y-68585404D01*
X62491476Y-68537785D01*
X62396238Y-68490166D01*
X62301000Y-68394928D01*
X62253380Y-68252071D01*
X62253380Y-68156833D01*
X62301000Y-68013976D01*
X62348619Y-67966357D01*
X63253380Y-67013976D02*
X63253380Y-67585404D01*
X63253380Y-67299690D02*
X62253380Y-67299690D01*
X62396238Y-67394928D01*
X62491476Y-67490166D01*
X62539095Y-67585404D01*
X62253380Y-66680642D02*
X62253380Y-66061595D01*
X62634333Y-66394928D01*
X62634333Y-66252071D01*
X62681952Y-66156833D01*
X62729571Y-66109214D01*
X62824809Y-66061595D01*
X63062904Y-66061595D01*
X63158142Y-66109214D01*
X63205761Y-66156833D01*
X63253380Y-66252071D01*
X63253380Y-66537785D01*
X63205761Y-66633023D01*
X63158142Y-66680642D01*
%TO.C,C14*%
X75798142Y-74304142D02*
X75750523Y-74351761D01*
X75607666Y-74399380D01*
X75512428Y-74399380D01*
X75369571Y-74351761D01*
X75274333Y-74256523D01*
X75226714Y-74161285D01*
X75179095Y-73970809D01*
X75179095Y-73827952D01*
X75226714Y-73637476D01*
X75274333Y-73542238D01*
X75369571Y-73447000D01*
X75512428Y-73399380D01*
X75607666Y-73399380D01*
X75750523Y-73447000D01*
X75798142Y-73494619D01*
X76750523Y-74399380D02*
X76179095Y-74399380D01*
X76464809Y-74399380D02*
X76464809Y-73399380D01*
X76369571Y-73542238D01*
X76274333Y-73637476D01*
X76179095Y-73685095D01*
X77607666Y-73732714D02*
X77607666Y-74399380D01*
X77369571Y-73351761D02*
X77131476Y-74066047D01*
X77750523Y-74066047D01*
%TO.C,C15*%
X75798142Y-78368142D02*
X75750523Y-78415761D01*
X75607666Y-78463380D01*
X75512428Y-78463380D01*
X75369571Y-78415761D01*
X75274333Y-78320523D01*
X75226714Y-78225285D01*
X75179095Y-78034809D01*
X75179095Y-77891952D01*
X75226714Y-77701476D01*
X75274333Y-77606238D01*
X75369571Y-77511000D01*
X75512428Y-77463380D01*
X75607666Y-77463380D01*
X75750523Y-77511000D01*
X75798142Y-77558619D01*
X76750523Y-78463380D02*
X76179095Y-78463380D01*
X76464809Y-78463380D02*
X76464809Y-77463380D01*
X76369571Y-77606238D01*
X76274333Y-77701476D01*
X76179095Y-77749095D01*
X77655285Y-77463380D02*
X77179095Y-77463380D01*
X77131476Y-77939571D01*
X77179095Y-77891952D01*
X77274333Y-77844333D01*
X77512428Y-77844333D01*
X77607666Y-77891952D01*
X77655285Y-77939571D01*
X77702904Y-78034809D01*
X77702904Y-78272904D01*
X77655285Y-78368142D01*
X77607666Y-78415761D01*
X77512428Y-78463380D01*
X77274333Y-78463380D01*
X77179095Y-78415761D01*
X77131476Y-78368142D01*
%TO.C,C16*%
X75798142Y-76336142D02*
X75750523Y-76383761D01*
X75607666Y-76431380D01*
X75512428Y-76431380D01*
X75369571Y-76383761D01*
X75274333Y-76288523D01*
X75226714Y-76193285D01*
X75179095Y-76002809D01*
X75179095Y-75859952D01*
X75226714Y-75669476D01*
X75274333Y-75574238D01*
X75369571Y-75479000D01*
X75512428Y-75431380D01*
X75607666Y-75431380D01*
X75750523Y-75479000D01*
X75798142Y-75526619D01*
X76750523Y-76431380D02*
X76179095Y-76431380D01*
X76464809Y-76431380D02*
X76464809Y-75431380D01*
X76369571Y-75574238D01*
X76274333Y-75669476D01*
X76179095Y-75717095D01*
X77607666Y-75431380D02*
X77417190Y-75431380D01*
X77321952Y-75479000D01*
X77274333Y-75526619D01*
X77179095Y-75669476D01*
X77131476Y-75859952D01*
X77131476Y-76240904D01*
X77179095Y-76336142D01*
X77226714Y-76383761D01*
X77321952Y-76431380D01*
X77512428Y-76431380D01*
X77607666Y-76383761D01*
X77655285Y-76336142D01*
X77702904Y-76240904D01*
X77702904Y-76002809D01*
X77655285Y-75907571D01*
X77607666Y-75859952D01*
X77512428Y-75812333D01*
X77321952Y-75812333D01*
X77226714Y-75859952D01*
X77179095Y-75907571D01*
X77131476Y-76002809D01*
%TO.C,C17*%
X75798142Y-80400142D02*
X75750523Y-80447761D01*
X75607666Y-80495380D01*
X75512428Y-80495380D01*
X75369571Y-80447761D01*
X75274333Y-80352523D01*
X75226714Y-80257285D01*
X75179095Y-80066809D01*
X75179095Y-79923952D01*
X75226714Y-79733476D01*
X75274333Y-79638238D01*
X75369571Y-79543000D01*
X75512428Y-79495380D01*
X75607666Y-79495380D01*
X75750523Y-79543000D01*
X75798142Y-79590619D01*
X76750523Y-80495380D02*
X76179095Y-80495380D01*
X76464809Y-80495380D02*
X76464809Y-79495380D01*
X76369571Y-79638238D01*
X76274333Y-79733476D01*
X76179095Y-79781095D01*
X77083857Y-79495380D02*
X77750523Y-79495380D01*
X77321952Y-80495380D01*
%TO.C,C18*%
X107959142Y-74048857D02*
X108006761Y-74096476D01*
X108054380Y-74239333D01*
X108054380Y-74334571D01*
X108006761Y-74477428D01*
X107911523Y-74572666D01*
X107816285Y-74620285D01*
X107625809Y-74667904D01*
X107482952Y-74667904D01*
X107292476Y-74620285D01*
X107197238Y-74572666D01*
X107102000Y-74477428D01*
X107054380Y-74334571D01*
X107054380Y-74239333D01*
X107102000Y-74096476D01*
X107149619Y-74048857D01*
X108054380Y-73096476D02*
X108054380Y-73667904D01*
X108054380Y-73382190D02*
X107054380Y-73382190D01*
X107197238Y-73477428D01*
X107292476Y-73572666D01*
X107340095Y-73667904D01*
X107482952Y-72525047D02*
X107435333Y-72620285D01*
X107387714Y-72667904D01*
X107292476Y-72715523D01*
X107244857Y-72715523D01*
X107149619Y-72667904D01*
X107102000Y-72620285D01*
X107054380Y-72525047D01*
X107054380Y-72334571D01*
X107102000Y-72239333D01*
X107149619Y-72191714D01*
X107244857Y-72144095D01*
X107292476Y-72144095D01*
X107387714Y-72191714D01*
X107435333Y-72239333D01*
X107482952Y-72334571D01*
X107482952Y-72525047D01*
X107530571Y-72620285D01*
X107578190Y-72667904D01*
X107673428Y-72715523D01*
X107863904Y-72715523D01*
X107959142Y-72667904D01*
X108006761Y-72620285D01*
X108054380Y-72525047D01*
X108054380Y-72334571D01*
X108006761Y-72239333D01*
X107959142Y-72191714D01*
X107863904Y-72144095D01*
X107673428Y-72144095D01*
X107578190Y-72191714D01*
X107530571Y-72239333D01*
X107482952Y-72334571D01*
%TO.C,D1*%
X44372380Y-40362095D02*
X43372380Y-40362095D01*
X43372380Y-40124000D01*
X43420000Y-39981142D01*
X43515238Y-39885904D01*
X43610476Y-39838285D01*
X43800952Y-39790666D01*
X43943809Y-39790666D01*
X44134285Y-39838285D01*
X44229523Y-39885904D01*
X44324761Y-39981142D01*
X44372380Y-40124000D01*
X44372380Y-40362095D01*
X44372380Y-38838285D02*
X44372380Y-39409714D01*
X44372380Y-39124000D02*
X43372380Y-39124000D01*
X43515238Y-39219238D01*
X43610476Y-39314476D01*
X43658095Y-39409714D01*
X43652380Y-34805904D02*
X42652380Y-34805904D01*
X43652380Y-34234476D02*
X43080952Y-34663047D01*
X42652380Y-34234476D02*
X43223809Y-34805904D01*
%TO.C,D2*%
X45124380Y-69571095D02*
X44124380Y-69571095D01*
X44124380Y-69333000D01*
X44172000Y-69190142D01*
X44267238Y-69094904D01*
X44362476Y-69047285D01*
X44552952Y-68999666D01*
X44695809Y-68999666D01*
X44886285Y-69047285D01*
X44981523Y-69094904D01*
X45076761Y-69190142D01*
X45124380Y-69333000D01*
X45124380Y-69571095D01*
X44219619Y-68618714D02*
X44172000Y-68571095D01*
X44124380Y-68475857D01*
X44124380Y-68237761D01*
X44172000Y-68142523D01*
X44219619Y-68094904D01*
X44314857Y-68047285D01*
X44410095Y-68047285D01*
X44552952Y-68094904D01*
X45124380Y-68666333D01*
X45124380Y-68047285D01*
%TO.C,D4*%
X112243404Y-64713380D02*
X112243404Y-63713380D01*
X112481500Y-63713380D01*
X112624357Y-63761000D01*
X112719595Y-63856238D01*
X112767214Y-63951476D01*
X112814833Y-64141952D01*
X112814833Y-64284809D01*
X112767214Y-64475285D01*
X112719595Y-64570523D01*
X112624357Y-64665761D01*
X112481500Y-64713380D01*
X112243404Y-64713380D01*
X113671976Y-64046714D02*
X113671976Y-64713380D01*
X113433880Y-63665761D02*
X113195785Y-64380047D01*
X113814833Y-64380047D01*
%TO.C,J1*%
X28662380Y-40873333D02*
X29376666Y-40873333D01*
X29519523Y-40920952D01*
X29614761Y-41016190D01*
X29662380Y-41159047D01*
X29662380Y-41254285D01*
X29662380Y-39873333D02*
X29662380Y-40444761D01*
X29662380Y-40159047D02*
X28662380Y-40159047D01*
X28805238Y-40254285D01*
X28900476Y-40349523D01*
X28948095Y-40444761D01*
%TO.C,J2*%
X112438380Y-54816333D02*
X113152666Y-54816333D01*
X113295523Y-54863952D01*
X113390761Y-54959190D01*
X113438380Y-55102047D01*
X113438380Y-55197285D01*
X112533619Y-54387761D02*
X112486000Y-54340142D01*
X112438380Y-54244904D01*
X112438380Y-54006809D01*
X112486000Y-53911571D01*
X112533619Y-53863952D01*
X112628857Y-53816333D01*
X112724095Y-53816333D01*
X112866952Y-53863952D01*
X113438380Y-54435380D01*
X113438380Y-53816333D01*
%TO.C,J3*%
X107358380Y-59896333D02*
X108072666Y-59896333D01*
X108215523Y-59943952D01*
X108310761Y-60039190D01*
X108358380Y-60182047D01*
X108358380Y-60277285D01*
X107358380Y-59515380D02*
X107358380Y-58896333D01*
X107739333Y-59229666D01*
X107739333Y-59086809D01*
X107786952Y-58991571D01*
X107834571Y-58943952D01*
X107929809Y-58896333D01*
X108167904Y-58896333D01*
X108263142Y-58943952D01*
X108310761Y-58991571D01*
X108358380Y-59086809D01*
X108358380Y-59372523D01*
X108310761Y-59467761D01*
X108263142Y-59515380D01*
%TO.C,J4*%
X108378666Y-69766380D02*
X108378666Y-70480666D01*
X108331047Y-70623523D01*
X108235809Y-70718761D01*
X108092952Y-70766380D01*
X107997714Y-70766380D01*
X109283428Y-70099714D02*
X109283428Y-70766380D01*
X109045333Y-69718761D02*
X108807238Y-70433047D01*
X109426285Y-70433047D01*
%TO.C,J5*%
X103298666Y-69766380D02*
X103298666Y-70480666D01*
X103251047Y-70623523D01*
X103155809Y-70718761D01*
X103012952Y-70766380D01*
X102917714Y-70766380D01*
X104251047Y-69766380D02*
X103774857Y-69766380D01*
X103727238Y-70242571D01*
X103774857Y-70194952D01*
X103870095Y-70147333D01*
X104108190Y-70147333D01*
X104203428Y-70194952D01*
X104251047Y-70242571D01*
X104298666Y-70337809D01*
X104298666Y-70575904D01*
X104251047Y-70671142D01*
X104203428Y-70718761D01*
X104108190Y-70766380D01*
X103870095Y-70766380D01*
X103774857Y-70718761D01*
X103727238Y-70671142D01*
%TO.C,J6*%
X100758666Y-69766380D02*
X100758666Y-70480666D01*
X100711047Y-70623523D01*
X100615809Y-70718761D01*
X100472952Y-70766380D01*
X100377714Y-70766380D01*
X101663428Y-69766380D02*
X101472952Y-69766380D01*
X101377714Y-69814000D01*
X101330095Y-69861619D01*
X101234857Y-70004476D01*
X101187238Y-70194952D01*
X101187238Y-70575904D01*
X101234857Y-70671142D01*
X101282476Y-70718761D01*
X101377714Y-70766380D01*
X101568190Y-70766380D01*
X101663428Y-70718761D01*
X101711047Y-70671142D01*
X101758666Y-70575904D01*
X101758666Y-70337809D01*
X101711047Y-70242571D01*
X101663428Y-70194952D01*
X101568190Y-70147333D01*
X101377714Y-70147333D01*
X101282476Y-70194952D01*
X101234857Y-70242571D01*
X101187238Y-70337809D01*
%TO.C,J7*%
X98218666Y-69781380D02*
X98218666Y-70495666D01*
X98171047Y-70638523D01*
X98075809Y-70733761D01*
X97932952Y-70781380D01*
X97837714Y-70781380D01*
X98599619Y-69781380D02*
X99266285Y-69781380D01*
X98837714Y-70781380D01*
%TO.C,J8*%
X92757666Y-72306380D02*
X92757666Y-73020666D01*
X92710047Y-73163523D01*
X92614809Y-73258761D01*
X92471952Y-73306380D01*
X92376714Y-73306380D01*
X93376714Y-72734952D02*
X93281476Y-72687333D01*
X93233857Y-72639714D01*
X93186238Y-72544476D01*
X93186238Y-72496857D01*
X93233857Y-72401619D01*
X93281476Y-72354000D01*
X93376714Y-72306380D01*
X93567190Y-72306380D01*
X93662428Y-72354000D01*
X93710047Y-72401619D01*
X93757666Y-72496857D01*
X93757666Y-72544476D01*
X93710047Y-72639714D01*
X93662428Y-72687333D01*
X93567190Y-72734952D01*
X93376714Y-72734952D01*
X93281476Y-72782571D01*
X93233857Y-72830190D01*
X93186238Y-72925428D01*
X93186238Y-73115904D01*
X93233857Y-73211142D01*
X93281476Y-73258761D01*
X93376714Y-73306380D01*
X93567190Y-73306380D01*
X93662428Y-73258761D01*
X93710047Y-73211142D01*
X93757666Y-73115904D01*
X93757666Y-72925428D01*
X93710047Y-72830190D01*
X93662428Y-72782571D01*
X93567190Y-72734952D01*
%TO.C,J9*%
X87677666Y-72306380D02*
X87677666Y-73020666D01*
X87630047Y-73163523D01*
X87534809Y-73258761D01*
X87391952Y-73306380D01*
X87296714Y-73306380D01*
X88201476Y-73306380D02*
X88391952Y-73306380D01*
X88487190Y-73258761D01*
X88534809Y-73211142D01*
X88630047Y-73068285D01*
X88677666Y-72877809D01*
X88677666Y-72496857D01*
X88630047Y-72401619D01*
X88582428Y-72354000D01*
X88487190Y-72306380D01*
X88296714Y-72306380D01*
X88201476Y-72354000D01*
X88153857Y-72401619D01*
X88106238Y-72496857D01*
X88106238Y-72734952D01*
X88153857Y-72830190D01*
X88201476Y-72877809D01*
X88296714Y-72925428D01*
X88487190Y-72925428D01*
X88582428Y-72877809D01*
X88630047Y-72830190D01*
X88677666Y-72734952D01*
%TO.C,J10*%
X89741476Y-72306380D02*
X89741476Y-73020666D01*
X89693857Y-73163523D01*
X89598619Y-73258761D01*
X89455761Y-73306380D01*
X89360523Y-73306380D01*
X90741476Y-73306380D02*
X90170047Y-73306380D01*
X90455761Y-73306380D02*
X90455761Y-72306380D01*
X90360523Y-72449238D01*
X90265285Y-72544476D01*
X90170047Y-72592095D01*
X91360523Y-72306380D02*
X91455761Y-72306380D01*
X91551000Y-72354000D01*
X91598619Y-72401619D01*
X91646238Y-72496857D01*
X91693857Y-72687333D01*
X91693857Y-72925428D01*
X91646238Y-73115904D01*
X91598619Y-73211142D01*
X91551000Y-73258761D01*
X91455761Y-73306380D01*
X91360523Y-73306380D01*
X91265285Y-73258761D01*
X91217666Y-73211142D01*
X91170047Y-73115904D01*
X91122428Y-72925428D01*
X91122428Y-72687333D01*
X91170047Y-72496857D01*
X91217666Y-72401619D01*
X91265285Y-72354000D01*
X91360523Y-72306380D01*
%TO.C,J11*%
X84661476Y-72316380D02*
X84661476Y-73030666D01*
X84613857Y-73173523D01*
X84518619Y-73268761D01*
X84375761Y-73316380D01*
X84280523Y-73316380D01*
X85661476Y-73316380D02*
X85090047Y-73316380D01*
X85375761Y-73316380D02*
X85375761Y-72316380D01*
X85280523Y-72459238D01*
X85185285Y-72554476D01*
X85090047Y-72602095D01*
X86613857Y-73316380D02*
X86042428Y-73316380D01*
X86328142Y-73316380D02*
X86328142Y-72316380D01*
X86232904Y-72459238D01*
X86137666Y-72554476D01*
X86042428Y-72602095D01*
%TO.C,J12*%
X112093476Y-47629380D02*
X112093476Y-48343666D01*
X112045857Y-48486523D01*
X111950619Y-48581761D01*
X111807761Y-48629380D01*
X111712523Y-48629380D01*
X113093476Y-48629380D02*
X112522047Y-48629380D01*
X112807761Y-48629380D02*
X112807761Y-47629380D01*
X112712523Y-47772238D01*
X112617285Y-47867476D01*
X112522047Y-47915095D01*
X113474428Y-47724619D02*
X113522047Y-47677000D01*
X113617285Y-47629380D01*
X113855380Y-47629380D01*
X113950619Y-47677000D01*
X113998238Y-47724619D01*
X114045857Y-47819857D01*
X114045857Y-47915095D01*
X113998238Y-48057952D01*
X113426809Y-48629380D01*
X114045857Y-48629380D01*
%TO.C,J13*%
X86740476Y-47502380D02*
X86740476Y-48216666D01*
X86692857Y-48359523D01*
X86597619Y-48454761D01*
X86454761Y-48502380D01*
X86359523Y-48502380D01*
X87740476Y-48502380D02*
X87169047Y-48502380D01*
X87454761Y-48502380D02*
X87454761Y-47502380D01*
X87359523Y-47645238D01*
X87264285Y-47740476D01*
X87169047Y-47788095D01*
X88073809Y-47502380D02*
X88692857Y-47502380D01*
X88359523Y-47883333D01*
X88502380Y-47883333D01*
X88597619Y-47930952D01*
X88645238Y-47978571D01*
X88692857Y-48073809D01*
X88692857Y-48311904D01*
X88645238Y-48407142D01*
X88597619Y-48454761D01*
X88502380Y-48502380D01*
X88216666Y-48502380D01*
X88121428Y-48454761D01*
X88073809Y-48407142D01*
%TO.C,J14*%
X61420476Y-47502380D02*
X61420476Y-48216666D01*
X61372857Y-48359523D01*
X61277619Y-48454761D01*
X61134761Y-48502380D01*
X61039523Y-48502380D01*
X62420476Y-48502380D02*
X61849047Y-48502380D01*
X62134761Y-48502380D02*
X62134761Y-47502380D01*
X62039523Y-47645238D01*
X61944285Y-47740476D01*
X61849047Y-47788095D01*
X63277619Y-47835714D02*
X63277619Y-48502380D01*
X63039523Y-47454761D02*
X62801428Y-48169047D01*
X63420476Y-48169047D01*
%TO.C,J15*%
X111315380Y-32559523D02*
X112029666Y-32559523D01*
X112172523Y-32607142D01*
X112267761Y-32702380D01*
X112315380Y-32845238D01*
X112315380Y-32940476D01*
X112315380Y-31559523D02*
X112315380Y-32130952D01*
X112315380Y-31845238D02*
X111315380Y-31845238D01*
X111458238Y-31940476D01*
X111553476Y-32035714D01*
X111601095Y-32130952D01*
X111315380Y-30654761D02*
X111315380Y-31130952D01*
X111791571Y-31178571D01*
X111743952Y-31130952D01*
X111696333Y-31035714D01*
X111696333Y-30797619D01*
X111743952Y-30702380D01*
X111791571Y-30654761D01*
X111886809Y-30607142D01*
X112124904Y-30607142D01*
X112220142Y-30654761D01*
X112267761Y-30702380D01*
X112315380Y-30797619D01*
X112315380Y-31035714D01*
X112267761Y-31130952D01*
X112220142Y-31178571D01*
%TO.C,J16*%
X85962380Y-32559523D02*
X86676666Y-32559523D01*
X86819523Y-32607142D01*
X86914761Y-32702380D01*
X86962380Y-32845238D01*
X86962380Y-32940476D01*
X86962380Y-31559523D02*
X86962380Y-32130952D01*
X86962380Y-31845238D02*
X85962380Y-31845238D01*
X86105238Y-31940476D01*
X86200476Y-32035714D01*
X86248095Y-32130952D01*
X85962380Y-30702380D02*
X85962380Y-30892857D01*
X86010000Y-30988095D01*
X86057619Y-31035714D01*
X86200476Y-31130952D01*
X86390952Y-31178571D01*
X86771904Y-31178571D01*
X86867142Y-31130952D01*
X86914761Y-31083333D01*
X86962380Y-30988095D01*
X86962380Y-30797619D01*
X86914761Y-30702380D01*
X86867142Y-30654761D01*
X86771904Y-30607142D01*
X86533809Y-30607142D01*
X86438571Y-30654761D01*
X86390952Y-30702380D01*
X86343333Y-30797619D01*
X86343333Y-30988095D01*
X86390952Y-31083333D01*
X86438571Y-31130952D01*
X86533809Y-31178571D01*
%TO.C,J17*%
X60642380Y-32559523D02*
X61356666Y-32559523D01*
X61499523Y-32607142D01*
X61594761Y-32702380D01*
X61642380Y-32845238D01*
X61642380Y-32940476D01*
X61642380Y-31559523D02*
X61642380Y-32130952D01*
X61642380Y-31845238D02*
X60642380Y-31845238D01*
X60785238Y-31940476D01*
X60880476Y-32035714D01*
X60928095Y-32130952D01*
X60642380Y-31226190D02*
X60642380Y-30559523D01*
X61642380Y-30988095D01*
%TO.C,JP1*%
X79557666Y-60563380D02*
X79557666Y-61277666D01*
X79510047Y-61420523D01*
X79414809Y-61515761D01*
X79271952Y-61563380D01*
X79176714Y-61563380D01*
X80033857Y-61563380D02*
X80033857Y-60563380D01*
X80414809Y-60563380D01*
X80510047Y-60611000D01*
X80557666Y-60658619D01*
X80605285Y-60753857D01*
X80605285Y-60896714D01*
X80557666Y-60991952D01*
X80510047Y-61039571D01*
X80414809Y-61087190D01*
X80033857Y-61087190D01*
X81557666Y-61563380D02*
X80986238Y-61563380D01*
X81271952Y-61563380D02*
X81271952Y-60563380D01*
X81176714Y-60706238D01*
X81081476Y-60801476D01*
X80986238Y-60849095D01*
%TO.C,JP2*%
X77017666Y-60563380D02*
X77017666Y-61277666D01*
X76970047Y-61420523D01*
X76874809Y-61515761D01*
X76731952Y-61563380D01*
X76636714Y-61563380D01*
X77493857Y-61563380D02*
X77493857Y-60563380D01*
X77874809Y-60563380D01*
X77970047Y-60611000D01*
X78017666Y-60658619D01*
X78065285Y-60753857D01*
X78065285Y-60896714D01*
X78017666Y-60991952D01*
X77970047Y-61039571D01*
X77874809Y-61087190D01*
X77493857Y-61087190D01*
X78446238Y-60658619D02*
X78493857Y-60611000D01*
X78589095Y-60563380D01*
X78827190Y-60563380D01*
X78922428Y-60611000D01*
X78970047Y-60658619D01*
X79017666Y-60753857D01*
X79017666Y-60849095D01*
X78970047Y-60991952D01*
X78398619Y-61563380D01*
X79017666Y-61563380D01*
%TO.C,L1*%
X49029380Y-63095666D02*
X49029380Y-63571857D01*
X48029380Y-63571857D01*
X49029380Y-62238523D02*
X49029380Y-62809952D01*
X49029380Y-62524238D02*
X48029380Y-62524238D01*
X48172238Y-62619476D01*
X48267476Y-62714714D01*
X48315095Y-62809952D01*
%TO.C,R1*%
X30763380Y-66780166D02*
X30287190Y-67113500D01*
X30763380Y-67351595D02*
X29763380Y-67351595D01*
X29763380Y-66970642D01*
X29811000Y-66875404D01*
X29858619Y-66827785D01*
X29953857Y-66780166D01*
X30096714Y-66780166D01*
X30191952Y-66827785D01*
X30239571Y-66875404D01*
X30287190Y-66970642D01*
X30287190Y-67351595D01*
X30763380Y-65827785D02*
X30763380Y-66399214D01*
X30763380Y-66113500D02*
X29763380Y-66113500D01*
X29906238Y-66208738D01*
X30001476Y-66303976D01*
X30049095Y-66399214D01*
%TO.C,R2*%
X35369833Y-59381380D02*
X35036500Y-58905190D01*
X34798404Y-59381380D02*
X34798404Y-58381380D01*
X35179357Y-58381380D01*
X35274595Y-58429000D01*
X35322214Y-58476619D01*
X35369833Y-58571857D01*
X35369833Y-58714714D01*
X35322214Y-58809952D01*
X35274595Y-58857571D01*
X35179357Y-58905190D01*
X34798404Y-58905190D01*
X35750785Y-58476619D02*
X35798404Y-58429000D01*
X35893642Y-58381380D01*
X36131738Y-58381380D01*
X36226976Y-58429000D01*
X36274595Y-58476619D01*
X36322214Y-58571857D01*
X36322214Y-58667095D01*
X36274595Y-58809952D01*
X35703166Y-59381380D01*
X36322214Y-59381380D01*
%TO.C,R3*%
X39179833Y-62681380D02*
X38846500Y-62205190D01*
X38608404Y-62681380D02*
X38608404Y-61681380D01*
X38989357Y-61681380D01*
X39084595Y-61729000D01*
X39132214Y-61776619D01*
X39179833Y-61871857D01*
X39179833Y-62014714D01*
X39132214Y-62109952D01*
X39084595Y-62157571D01*
X38989357Y-62205190D01*
X38608404Y-62205190D01*
X39513166Y-61681380D02*
X40132214Y-61681380D01*
X39798880Y-62062333D01*
X39941738Y-62062333D01*
X40036976Y-62109952D01*
X40084595Y-62157571D01*
X40132214Y-62252809D01*
X40132214Y-62490904D01*
X40084595Y-62586142D01*
X40036976Y-62633761D01*
X39941738Y-62681380D01*
X39656023Y-62681380D01*
X39560785Y-62633761D01*
X39513166Y-62586142D01*
%TO.C,R5*%
X109457833Y-68398380D02*
X109124500Y-67922190D01*
X108886404Y-68398380D02*
X108886404Y-67398380D01*
X109267357Y-67398380D01*
X109362595Y-67446000D01*
X109410214Y-67493619D01*
X109457833Y-67588857D01*
X109457833Y-67731714D01*
X109410214Y-67826952D01*
X109362595Y-67874571D01*
X109267357Y-67922190D01*
X108886404Y-67922190D01*
X110362595Y-67398380D02*
X109886404Y-67398380D01*
X109838785Y-67874571D01*
X109886404Y-67826952D01*
X109981642Y-67779333D01*
X110219738Y-67779333D01*
X110314976Y-67826952D01*
X110362595Y-67874571D01*
X110410214Y-67969809D01*
X110410214Y-68207904D01*
X110362595Y-68303142D01*
X110314976Y-68350761D01*
X110219738Y-68398380D01*
X109981642Y-68398380D01*
X109886404Y-68350761D01*
X109838785Y-68303142D01*
%TO.C,R6*%
X102434380Y-69104166D02*
X101958190Y-69437500D01*
X102434380Y-69675595D02*
X101434380Y-69675595D01*
X101434380Y-69294642D01*
X101482000Y-69199404D01*
X101529619Y-69151785D01*
X101624857Y-69104166D01*
X101767714Y-69104166D01*
X101862952Y-69151785D01*
X101910571Y-69199404D01*
X101958190Y-69294642D01*
X101958190Y-69675595D01*
X101434380Y-68247023D02*
X101434380Y-68437500D01*
X101482000Y-68532738D01*
X101529619Y-68580357D01*
X101672476Y-68675595D01*
X101862952Y-68723214D01*
X102243904Y-68723214D01*
X102339142Y-68675595D01*
X102386761Y-68627976D01*
X102434380Y-68532738D01*
X102434380Y-68342261D01*
X102386761Y-68247023D01*
X102339142Y-68199404D01*
X102243904Y-68151785D01*
X102005809Y-68151785D01*
X101910571Y-68199404D01*
X101862952Y-68247023D01*
X101815333Y-68342261D01*
X101815333Y-68532738D01*
X101862952Y-68627976D01*
X101910571Y-68675595D01*
X102005809Y-68723214D01*
%TO.C,R7*%
X99894380Y-69104166D02*
X99418190Y-69437500D01*
X99894380Y-69675595D02*
X98894380Y-69675595D01*
X98894380Y-69294642D01*
X98942000Y-69199404D01*
X98989619Y-69151785D01*
X99084857Y-69104166D01*
X99227714Y-69104166D01*
X99322952Y-69151785D01*
X99370571Y-69199404D01*
X99418190Y-69294642D01*
X99418190Y-69675595D01*
X98894380Y-68770833D02*
X98894380Y-68104166D01*
X99894380Y-68532738D01*
%TO.C,R8*%
X97354380Y-69104166D02*
X96878190Y-69437500D01*
X97354380Y-69675595D02*
X96354380Y-69675595D01*
X96354380Y-69294642D01*
X96402000Y-69199404D01*
X96449619Y-69151785D01*
X96544857Y-69104166D01*
X96687714Y-69104166D01*
X96782952Y-69151785D01*
X96830571Y-69199404D01*
X96878190Y-69294642D01*
X96878190Y-69675595D01*
X96782952Y-68532738D02*
X96735333Y-68627976D01*
X96687714Y-68675595D01*
X96592476Y-68723214D01*
X96544857Y-68723214D01*
X96449619Y-68675595D01*
X96402000Y-68627976D01*
X96354380Y-68532738D01*
X96354380Y-68342261D01*
X96402000Y-68247023D01*
X96449619Y-68199404D01*
X96544857Y-68151785D01*
X96592476Y-68151785D01*
X96687714Y-68199404D01*
X96735333Y-68247023D01*
X96782952Y-68342261D01*
X96782952Y-68532738D01*
X96830571Y-68627976D01*
X96878190Y-68675595D01*
X96973428Y-68723214D01*
X97163904Y-68723214D01*
X97259142Y-68675595D01*
X97306761Y-68627976D01*
X97354380Y-68532738D01*
X97354380Y-68342261D01*
X97306761Y-68247023D01*
X97259142Y-68199404D01*
X97163904Y-68151785D01*
X96973428Y-68151785D01*
X96878190Y-68199404D01*
X96830571Y-68247023D01*
X96782952Y-68342261D01*
%TO.C,R9*%
X105734380Y-65548166D02*
X105258190Y-65881500D01*
X105734380Y-66119595D02*
X104734380Y-66119595D01*
X104734380Y-65738642D01*
X104782000Y-65643404D01*
X104829619Y-65595785D01*
X104924857Y-65548166D01*
X105067714Y-65548166D01*
X105162952Y-65595785D01*
X105210571Y-65643404D01*
X105258190Y-65738642D01*
X105258190Y-66119595D01*
X105734380Y-65071976D02*
X105734380Y-64881500D01*
X105686761Y-64786261D01*
X105639142Y-64738642D01*
X105496285Y-64643404D01*
X105305809Y-64595785D01*
X104924857Y-64595785D01*
X104829619Y-64643404D01*
X104782000Y-64691023D01*
X104734380Y-64786261D01*
X104734380Y-64976738D01*
X104782000Y-65071976D01*
X104829619Y-65119595D01*
X104924857Y-65167214D01*
X105162952Y-65167214D01*
X105258190Y-65119595D01*
X105305809Y-65071976D01*
X105353428Y-64976738D01*
X105353428Y-64786261D01*
X105305809Y-64691023D01*
X105258190Y-64643404D01*
X105162952Y-64595785D01*
%TO.C,R10*%
X103194380Y-66047857D02*
X102718190Y-66381190D01*
X103194380Y-66619285D02*
X102194380Y-66619285D01*
X102194380Y-66238333D01*
X102242000Y-66143095D01*
X102289619Y-66095476D01*
X102384857Y-66047857D01*
X102527714Y-66047857D01*
X102622952Y-66095476D01*
X102670571Y-66143095D01*
X102718190Y-66238333D01*
X102718190Y-66619285D01*
X103194380Y-65095476D02*
X103194380Y-65666904D01*
X103194380Y-65381190D02*
X102194380Y-65381190D01*
X102337238Y-65476428D01*
X102432476Y-65571666D01*
X102480095Y-65666904D01*
X102194380Y-64476428D02*
X102194380Y-64381190D01*
X102242000Y-64285952D01*
X102289619Y-64238333D01*
X102384857Y-64190714D01*
X102575333Y-64143095D01*
X102813428Y-64143095D01*
X103003904Y-64190714D01*
X103099142Y-64238333D01*
X103146761Y-64285952D01*
X103194380Y-64381190D01*
X103194380Y-64476428D01*
X103146761Y-64571666D01*
X103099142Y-64619285D01*
X103003904Y-64666904D01*
X102813428Y-64714523D01*
X102575333Y-64714523D01*
X102384857Y-64666904D01*
X102289619Y-64619285D01*
X102242000Y-64571666D01*
X102194380Y-64476428D01*
%TO.C,R11*%
X94988142Y-66874380D02*
X94654809Y-66398190D01*
X94416714Y-66874380D02*
X94416714Y-65874380D01*
X94797666Y-65874380D01*
X94892904Y-65922000D01*
X94940523Y-65969619D01*
X94988142Y-66064857D01*
X94988142Y-66207714D01*
X94940523Y-66302952D01*
X94892904Y-66350571D01*
X94797666Y-66398190D01*
X94416714Y-66398190D01*
X95940523Y-66874380D02*
X95369095Y-66874380D01*
X95654809Y-66874380D02*
X95654809Y-65874380D01*
X95559571Y-66017238D01*
X95464333Y-66112476D01*
X95369095Y-66160095D01*
X96892904Y-66874380D02*
X96321476Y-66874380D01*
X96607190Y-66874380D02*
X96607190Y-65874380D01*
X96511952Y-66017238D01*
X96416714Y-66112476D01*
X96321476Y-66160095D01*
%TO.C,R12*%
X108958142Y-66112380D02*
X108624809Y-65636190D01*
X108386714Y-66112380D02*
X108386714Y-65112380D01*
X108767666Y-65112380D01*
X108862904Y-65160000D01*
X108910523Y-65207619D01*
X108958142Y-65302857D01*
X108958142Y-65445714D01*
X108910523Y-65540952D01*
X108862904Y-65588571D01*
X108767666Y-65636190D01*
X108386714Y-65636190D01*
X109910523Y-66112380D02*
X109339095Y-66112380D01*
X109624809Y-66112380D02*
X109624809Y-65112380D01*
X109529571Y-65255238D01*
X109434333Y-65350476D01*
X109339095Y-65398095D01*
X110291476Y-65207619D02*
X110339095Y-65160000D01*
X110434333Y-65112380D01*
X110672428Y-65112380D01*
X110767666Y-65160000D01*
X110815285Y-65207619D01*
X110862904Y-65302857D01*
X110862904Y-65398095D01*
X110815285Y-65540952D01*
X110243857Y-66112380D01*
X110862904Y-66112380D01*
%TO.C,R13*%
X108934642Y-64080380D02*
X108601309Y-63604190D01*
X108363214Y-64080380D02*
X108363214Y-63080380D01*
X108744166Y-63080380D01*
X108839404Y-63128000D01*
X108887023Y-63175619D01*
X108934642Y-63270857D01*
X108934642Y-63413714D01*
X108887023Y-63508952D01*
X108839404Y-63556571D01*
X108744166Y-63604190D01*
X108363214Y-63604190D01*
X109887023Y-64080380D02*
X109315595Y-64080380D01*
X109601309Y-64080380D02*
X109601309Y-63080380D01*
X109506071Y-63223238D01*
X109410833Y-63318476D01*
X109315595Y-63366095D01*
X110220357Y-63080380D02*
X110839404Y-63080380D01*
X110506071Y-63461333D01*
X110648928Y-63461333D01*
X110744166Y-63508952D01*
X110791785Y-63556571D01*
X110839404Y-63651809D01*
X110839404Y-63889904D01*
X110791785Y-63985142D01*
X110744166Y-64032761D01*
X110648928Y-64080380D01*
X110363214Y-64080380D01*
X110267976Y-64032761D01*
X110220357Y-63985142D01*
%TO.C,R14*%
X80105642Y-71319380D02*
X79772309Y-70843190D01*
X79534214Y-71319380D02*
X79534214Y-70319380D01*
X79915166Y-70319380D01*
X80010404Y-70367000D01*
X80058023Y-70414619D01*
X80105642Y-70509857D01*
X80105642Y-70652714D01*
X80058023Y-70747952D01*
X80010404Y-70795571D01*
X79915166Y-70843190D01*
X79534214Y-70843190D01*
X81058023Y-71319380D02*
X80486595Y-71319380D01*
X80772309Y-71319380D02*
X80772309Y-70319380D01*
X80677071Y-70462238D01*
X80581833Y-70557476D01*
X80486595Y-70605095D01*
X81915166Y-70652714D02*
X81915166Y-71319380D01*
X81677071Y-70271761D02*
X81438976Y-70986047D01*
X82058023Y-70986047D01*
%TO.C,R15*%
X80105642Y-75383380D02*
X79772309Y-74907190D01*
X79534214Y-75383380D02*
X79534214Y-74383380D01*
X79915166Y-74383380D01*
X80010404Y-74431000D01*
X80058023Y-74478619D01*
X80105642Y-74573857D01*
X80105642Y-74716714D01*
X80058023Y-74811952D01*
X80010404Y-74859571D01*
X79915166Y-74907190D01*
X79534214Y-74907190D01*
X81058023Y-75383380D02*
X80486595Y-75383380D01*
X80772309Y-75383380D02*
X80772309Y-74383380D01*
X80677071Y-74526238D01*
X80581833Y-74621476D01*
X80486595Y-74669095D01*
X81962785Y-74383380D02*
X81486595Y-74383380D01*
X81438976Y-74859571D01*
X81486595Y-74811952D01*
X81581833Y-74764333D01*
X81819928Y-74764333D01*
X81915166Y-74811952D01*
X81962785Y-74859571D01*
X82010404Y-74954809D01*
X82010404Y-75192904D01*
X81962785Y-75288142D01*
X81915166Y-75335761D01*
X81819928Y-75383380D01*
X81581833Y-75383380D01*
X81486595Y-75335761D01*
X81438976Y-75288142D01*
%TO.C,R16*%
X80105642Y-73351380D02*
X79772309Y-72875190D01*
X79534214Y-73351380D02*
X79534214Y-72351380D01*
X79915166Y-72351380D01*
X80010404Y-72399000D01*
X80058023Y-72446619D01*
X80105642Y-72541857D01*
X80105642Y-72684714D01*
X80058023Y-72779952D01*
X80010404Y-72827571D01*
X79915166Y-72875190D01*
X79534214Y-72875190D01*
X81058023Y-73351380D02*
X80486595Y-73351380D01*
X80772309Y-73351380D02*
X80772309Y-72351380D01*
X80677071Y-72494238D01*
X80581833Y-72589476D01*
X80486595Y-72637095D01*
X81915166Y-72351380D02*
X81724690Y-72351380D01*
X81629452Y-72399000D01*
X81581833Y-72446619D01*
X81486595Y-72589476D01*
X81438976Y-72779952D01*
X81438976Y-73160904D01*
X81486595Y-73256142D01*
X81534214Y-73303761D01*
X81629452Y-73351380D01*
X81819928Y-73351380D01*
X81915166Y-73303761D01*
X81962785Y-73256142D01*
X82010404Y-73160904D01*
X82010404Y-72922809D01*
X81962785Y-72827571D01*
X81915166Y-72779952D01*
X81819928Y-72732333D01*
X81629452Y-72732333D01*
X81534214Y-72779952D01*
X81486595Y-72827571D01*
X81438976Y-72922809D01*
%TO.C,R17*%
X80105642Y-77415380D02*
X79772309Y-76939190D01*
X79534214Y-77415380D02*
X79534214Y-76415380D01*
X79915166Y-76415380D01*
X80010404Y-76463000D01*
X80058023Y-76510619D01*
X80105642Y-76605857D01*
X80105642Y-76748714D01*
X80058023Y-76843952D01*
X80010404Y-76891571D01*
X79915166Y-76939190D01*
X79534214Y-76939190D01*
X81058023Y-77415380D02*
X80486595Y-77415380D01*
X80772309Y-77415380D02*
X80772309Y-76415380D01*
X80677071Y-76558238D01*
X80581833Y-76653476D01*
X80486595Y-76701095D01*
X81391357Y-76415380D02*
X82058023Y-76415380D01*
X81629452Y-77415380D01*
%TO.C,R18*%
X62579642Y-74367380D02*
X62246309Y-73891190D01*
X62008214Y-74367380D02*
X62008214Y-73367380D01*
X62389166Y-73367380D01*
X62484404Y-73415000D01*
X62532023Y-73462619D01*
X62579642Y-73557857D01*
X62579642Y-73700714D01*
X62532023Y-73795952D01*
X62484404Y-73843571D01*
X62389166Y-73891190D01*
X62008214Y-73891190D01*
X63532023Y-74367380D02*
X62960595Y-74367380D01*
X63246309Y-74367380D02*
X63246309Y-73367380D01*
X63151071Y-73510238D01*
X63055833Y-73605476D01*
X62960595Y-73653095D01*
X64103452Y-73795952D02*
X64008214Y-73748333D01*
X63960595Y-73700714D01*
X63912976Y-73605476D01*
X63912976Y-73557857D01*
X63960595Y-73462619D01*
X64008214Y-73415000D01*
X64103452Y-73367380D01*
X64293928Y-73367380D01*
X64389166Y-73415000D01*
X64436785Y-73462619D01*
X64484404Y-73557857D01*
X64484404Y-73605476D01*
X64436785Y-73700714D01*
X64389166Y-73748333D01*
X64293928Y-73795952D01*
X64103452Y-73795952D01*
X64008214Y-73843571D01*
X63960595Y-73891190D01*
X63912976Y-73986428D01*
X63912976Y-74176904D01*
X63960595Y-74272142D01*
X64008214Y-74319761D01*
X64103452Y-74367380D01*
X64293928Y-74367380D01*
X64389166Y-74319761D01*
X64436785Y-74272142D01*
X64484404Y-74176904D01*
X64484404Y-73986428D01*
X64436785Y-73891190D01*
X64389166Y-73843571D01*
X64293928Y-73795952D01*
%TO.C,R19*%
X43379380Y-76866357D02*
X42903190Y-77199690D01*
X43379380Y-77437785D02*
X42379380Y-77437785D01*
X42379380Y-77056833D01*
X42427000Y-76961595D01*
X42474619Y-76913976D01*
X42569857Y-76866357D01*
X42712714Y-76866357D01*
X42807952Y-76913976D01*
X42855571Y-76961595D01*
X42903190Y-77056833D01*
X42903190Y-77437785D01*
X43379380Y-75913976D02*
X43379380Y-76485404D01*
X43379380Y-76199690D02*
X42379380Y-76199690D01*
X42522238Y-76294928D01*
X42617476Y-76390166D01*
X42665095Y-76485404D01*
X43379380Y-75437785D02*
X43379380Y-75247309D01*
X43331761Y-75152071D01*
X43284142Y-75104452D01*
X43141285Y-75009214D01*
X42950809Y-74961595D01*
X42569857Y-74961595D01*
X42474619Y-75009214D01*
X42427000Y-75056833D01*
X42379380Y-75152071D01*
X42379380Y-75342547D01*
X42427000Y-75437785D01*
X42474619Y-75485404D01*
X42569857Y-75533023D01*
X42807952Y-75533023D01*
X42903190Y-75485404D01*
X42950809Y-75437785D01*
X42998428Y-75342547D01*
X42998428Y-75152071D01*
X42950809Y-75056833D01*
X42903190Y-75009214D01*
X42807952Y-74961595D01*
%TO.C,R20*%
X45919380Y-76866357D02*
X45443190Y-77199690D01*
X45919380Y-77437785D02*
X44919380Y-77437785D01*
X44919380Y-77056833D01*
X44967000Y-76961595D01*
X45014619Y-76913976D01*
X45109857Y-76866357D01*
X45252714Y-76866357D01*
X45347952Y-76913976D01*
X45395571Y-76961595D01*
X45443190Y-77056833D01*
X45443190Y-77437785D01*
X45014619Y-76485404D02*
X44967000Y-76437785D01*
X44919380Y-76342547D01*
X44919380Y-76104452D01*
X44967000Y-76009214D01*
X45014619Y-75961595D01*
X45109857Y-75913976D01*
X45205095Y-75913976D01*
X45347952Y-75961595D01*
X45919380Y-76533023D01*
X45919380Y-75913976D01*
X44919380Y-75294928D02*
X44919380Y-75199690D01*
X44967000Y-75104452D01*
X45014619Y-75056833D01*
X45109857Y-75009214D01*
X45300333Y-74961595D01*
X45538428Y-74961595D01*
X45728904Y-75009214D01*
X45824142Y-75056833D01*
X45871761Y-75104452D01*
X45919380Y-75199690D01*
X45919380Y-75294928D01*
X45871761Y-75390166D01*
X45824142Y-75437785D01*
X45728904Y-75485404D01*
X45538428Y-75533023D01*
X45300333Y-75533023D01*
X45109857Y-75485404D01*
X45014619Y-75437785D01*
X44967000Y-75390166D01*
X44919380Y-75294928D01*
%TO.C,R21*%
X40839380Y-76866357D02*
X40363190Y-77199690D01*
X40839380Y-77437785D02*
X39839380Y-77437785D01*
X39839380Y-77056833D01*
X39887000Y-76961595D01*
X39934619Y-76913976D01*
X40029857Y-76866357D01*
X40172714Y-76866357D01*
X40267952Y-76913976D01*
X40315571Y-76961595D01*
X40363190Y-77056833D01*
X40363190Y-77437785D01*
X39934619Y-76485404D02*
X39887000Y-76437785D01*
X39839380Y-76342547D01*
X39839380Y-76104452D01*
X39887000Y-76009214D01*
X39934619Y-75961595D01*
X40029857Y-75913976D01*
X40125095Y-75913976D01*
X40267952Y-75961595D01*
X40839380Y-76533023D01*
X40839380Y-75913976D01*
X40839380Y-74961595D02*
X40839380Y-75533023D01*
X40839380Y-75247309D02*
X39839380Y-75247309D01*
X39982238Y-75342547D01*
X40077476Y-75437785D01*
X40125095Y-75533023D01*
%TO.C,U1*%
X83214380Y-58800904D02*
X84023904Y-58800904D01*
X84119142Y-58753285D01*
X84166761Y-58705666D01*
X84214380Y-58610428D01*
X84214380Y-58419952D01*
X84166761Y-58324714D01*
X84119142Y-58277095D01*
X84023904Y-58229476D01*
X83214380Y-58229476D01*
X84214380Y-57229476D02*
X84214380Y-57800904D01*
X84214380Y-57515190D02*
X83214380Y-57515190D01*
X83357238Y-57610428D01*
X83452476Y-57705666D01*
X83500095Y-57800904D01*
%TO.C,U2*%
X36703095Y-69019380D02*
X36703095Y-69828904D01*
X36750714Y-69924142D01*
X36798333Y-69971761D01*
X36893571Y-70019380D01*
X37084047Y-70019380D01*
X37179285Y-69971761D01*
X37226904Y-69924142D01*
X37274523Y-69828904D01*
X37274523Y-69019380D01*
X37703095Y-69114619D02*
X37750714Y-69067000D01*
X37845952Y-69019380D01*
X38084047Y-69019380D01*
X38179285Y-69067000D01*
X38226904Y-69114619D01*
X38274523Y-69209857D01*
X38274523Y-69305095D01*
X38226904Y-69447952D01*
X37655476Y-70019380D01*
X38274523Y-70019380D01*
%TO.C,U3*%
X74945380Y-65404904D02*
X75754904Y-65404904D01*
X75850142Y-65357285D01*
X75897761Y-65309666D01*
X75945380Y-65214428D01*
X75945380Y-65023952D01*
X75897761Y-64928714D01*
X75850142Y-64881095D01*
X75754904Y-64833476D01*
X74945380Y-64833476D01*
X74945380Y-64452523D02*
X74945380Y-63833476D01*
X75326333Y-64166809D01*
X75326333Y-64023952D01*
X75373952Y-63928714D01*
X75421571Y-63881095D01*
X75516809Y-63833476D01*
X75754904Y-63833476D01*
X75850142Y-63881095D01*
X75897761Y-63928714D01*
X75945380Y-64023952D01*
X75945380Y-64309666D01*
X75897761Y-64404904D01*
X75850142Y-64452523D01*
%TO.C,U4*%
X111041380Y-69341904D02*
X111850904Y-69341904D01*
X111946142Y-69294285D01*
X111993761Y-69246666D01*
X112041380Y-69151428D01*
X112041380Y-68960952D01*
X111993761Y-68865714D01*
X111946142Y-68818095D01*
X111850904Y-68770476D01*
X111041380Y-68770476D01*
X111374714Y-67865714D02*
X112041380Y-67865714D01*
X110993761Y-68103809D02*
X111708047Y-68341904D01*
X111708047Y-67722857D01*
%TO.C,REF\u002A\u002A*%
X31432666Y-29106380D02*
X31099333Y-28630190D01*
X30861238Y-29106380D02*
X30861238Y-28106380D01*
X31242190Y-28106380D01*
X31337428Y-28154000D01*
X31385047Y-28201619D01*
X31432666Y-28296857D01*
X31432666Y-28439714D01*
X31385047Y-28534952D01*
X31337428Y-28582571D01*
X31242190Y-28630190D01*
X30861238Y-28630190D01*
X31861238Y-28582571D02*
X32194571Y-28582571D01*
X32337428Y-29106380D02*
X31861238Y-29106380D01*
X31861238Y-28106380D01*
X32337428Y-28106380D01*
X33099333Y-28582571D02*
X32766000Y-28582571D01*
X32766000Y-29106380D02*
X32766000Y-28106380D01*
X33242190Y-28106380D01*
X33766000Y-28106380D02*
X33766000Y-28344476D01*
X33527904Y-28249238D02*
X33766000Y-28344476D01*
X34004095Y-28249238D01*
X33623142Y-28534952D02*
X33766000Y-28344476D01*
X33908857Y-28534952D01*
X34527904Y-28106380D02*
X34527904Y-28344476D01*
X34289809Y-28249238D02*
X34527904Y-28344476D01*
X34766000Y-28249238D01*
X34385047Y-28534952D02*
X34527904Y-28344476D01*
X34670761Y-28534952D01*
%TO.C,C23*%
X73050142Y-38552142D02*
X73002523Y-38599761D01*
X72859666Y-38647380D01*
X72764428Y-38647380D01*
X72621571Y-38599761D01*
X72526333Y-38504523D01*
X72478714Y-38409285D01*
X72431095Y-38218809D01*
X72431095Y-38075952D01*
X72478714Y-37885476D01*
X72526333Y-37790238D01*
X72621571Y-37695000D01*
X72764428Y-37647380D01*
X72859666Y-37647380D01*
X73002523Y-37695000D01*
X73050142Y-37742619D01*
X73431095Y-37742619D02*
X73478714Y-37695000D01*
X73573952Y-37647380D01*
X73812047Y-37647380D01*
X73907285Y-37695000D01*
X73954904Y-37742619D01*
X74002523Y-37837857D01*
X74002523Y-37933095D01*
X73954904Y-38075952D01*
X73383476Y-38647380D01*
X74002523Y-38647380D01*
X74335857Y-37647380D02*
X74954904Y-37647380D01*
X74621571Y-38028333D01*
X74764428Y-38028333D01*
X74859666Y-38075952D01*
X74907285Y-38123571D01*
X74954904Y-38218809D01*
X74954904Y-38456904D01*
X74907285Y-38552142D01*
X74859666Y-38599761D01*
X74764428Y-38647380D01*
X74478714Y-38647380D01*
X74383476Y-38599761D01*
X74335857Y-38552142D01*
%TO.C,C24*%
X98450142Y-38552142D02*
X98402523Y-38599761D01*
X98259666Y-38647380D01*
X98164428Y-38647380D01*
X98021571Y-38599761D01*
X97926333Y-38504523D01*
X97878714Y-38409285D01*
X97831095Y-38218809D01*
X97831095Y-38075952D01*
X97878714Y-37885476D01*
X97926333Y-37790238D01*
X98021571Y-37695000D01*
X98164428Y-37647380D01*
X98259666Y-37647380D01*
X98402523Y-37695000D01*
X98450142Y-37742619D01*
X98831095Y-37742619D02*
X98878714Y-37695000D01*
X98973952Y-37647380D01*
X99212047Y-37647380D01*
X99307285Y-37695000D01*
X99354904Y-37742619D01*
X99402523Y-37837857D01*
X99402523Y-37933095D01*
X99354904Y-38075952D01*
X98783476Y-38647380D01*
X99402523Y-38647380D01*
X100259666Y-37980714D02*
X100259666Y-38647380D01*
X100021571Y-37599761D02*
X99783476Y-38314047D01*
X100402523Y-38314047D01*
%TO.C,*%
%TO.C,C21*%
X47777142Y-38679142D02*
X47729523Y-38726761D01*
X47586666Y-38774380D01*
X47491428Y-38774380D01*
X47348571Y-38726761D01*
X47253333Y-38631523D01*
X47205714Y-38536285D01*
X47158095Y-38345809D01*
X47158095Y-38202952D01*
X47205714Y-38012476D01*
X47253333Y-37917238D01*
X47348571Y-37822000D01*
X47491428Y-37774380D01*
X47586666Y-37774380D01*
X47729523Y-37822000D01*
X47777142Y-37869619D01*
X48158095Y-37869619D02*
X48205714Y-37822000D01*
X48300952Y-37774380D01*
X48539047Y-37774380D01*
X48634285Y-37822000D01*
X48681904Y-37869619D01*
X48729523Y-37964857D01*
X48729523Y-38060095D01*
X48681904Y-38202952D01*
X48110476Y-38774380D01*
X48729523Y-38774380D01*
X49681904Y-38774380D02*
X49110476Y-38774380D01*
X49396190Y-38774380D02*
X49396190Y-37774380D01*
X49300952Y-37917238D01*
X49205714Y-38012476D01*
X49110476Y-38060095D01*
%TO.C,C22*%
X64016142Y-65660857D02*
X64063761Y-65708476D01*
X64111380Y-65851333D01*
X64111380Y-65946571D01*
X64063761Y-66089428D01*
X63968523Y-66184666D01*
X63873285Y-66232285D01*
X63682809Y-66279904D01*
X63539952Y-66279904D01*
X63349476Y-66232285D01*
X63254238Y-66184666D01*
X63159000Y-66089428D01*
X63111380Y-65946571D01*
X63111380Y-65851333D01*
X63159000Y-65708476D01*
X63206619Y-65660857D01*
X63206619Y-65279904D02*
X63159000Y-65232285D01*
X63111380Y-65137047D01*
X63111380Y-64898952D01*
X63159000Y-64803714D01*
X63206619Y-64756095D01*
X63301857Y-64708476D01*
X63397095Y-64708476D01*
X63539952Y-64756095D01*
X64111380Y-65327523D01*
X64111380Y-64708476D01*
X63206619Y-64327523D02*
X63159000Y-64279904D01*
X63111380Y-64184666D01*
X63111380Y-63946571D01*
X63159000Y-63851333D01*
X63206619Y-63803714D01*
X63301857Y-63756095D01*
X63397095Y-63756095D01*
X63539952Y-63803714D01*
X64111380Y-64375142D01*
X64111380Y-63756095D01*
%TO.C,*%
D11*
%TO.C,C3*%
X84707000Y-63513580D02*
X84707000Y-63232420D01*
X85727000Y-63513580D02*
X85727000Y-63232420D01*
%TO.C,A1*%
X73940000Y-56258000D02*
X71270000Y-56258000D01*
X30500000Y-74298000D02*
X73940000Y-74298000D01*
X68730000Y-58928000D02*
X71270000Y-58928000D01*
X33170000Y-71628000D02*
X33170000Y-74298000D01*
X71270000Y-58928000D02*
X71270000Y-56258000D01*
X73940000Y-74298000D02*
X73940000Y-56258000D01*
X68730000Y-58928000D02*
X68730000Y-56258000D01*
X30500000Y-56258000D02*
X30500000Y-74298000D01*
X68730000Y-56258000D02*
X30500000Y-56258000D01*
X33170000Y-58928000D02*
X33170000Y-56258000D01*
X71270000Y-71628000D02*
X71270000Y-74298000D01*
X71270000Y-71628000D02*
X33170000Y-71628000D01*
X68730000Y-58928000D02*
X33170000Y-58928000D01*
%TO.C,A2*%
X112903000Y-38100000D02*
X112903000Y-35430000D01*
X115573000Y-35430000D02*
X114173000Y-35430000D01*
X112903000Y-35430000D02*
X94993000Y-35430000D01*
X94993000Y-35430000D02*
X94993000Y-50930000D01*
X115573000Y-50930000D02*
X115573000Y-38100000D01*
X115573000Y-38100000D02*
X112903000Y-38100000D01*
X112903000Y-38100000D02*
X94993000Y-38100000D01*
X94993000Y-50930000D02*
X115573000Y-50930000D01*
X115573000Y-48260000D02*
X94993000Y-48260000D01*
X115573000Y-36830000D02*
X115573000Y-35430000D01*
%TO.C,A3*%
X90220000Y-48260000D02*
X69640000Y-48260000D01*
X69640000Y-35430000D02*
X69640000Y-50930000D01*
X90220000Y-50930000D02*
X90220000Y-38100000D01*
X87550000Y-38100000D02*
X69640000Y-38100000D01*
X90220000Y-35430000D02*
X88820000Y-35430000D01*
X87550000Y-38100000D02*
X87550000Y-35430000D01*
X69640000Y-50930000D02*
X90220000Y-50930000D01*
X90220000Y-38100000D02*
X87550000Y-38100000D01*
X87550000Y-35430000D02*
X69640000Y-35430000D01*
X90220000Y-36830000D02*
X90220000Y-35430000D01*
%TO.C,A4*%
X64900000Y-50930000D02*
X64900000Y-38100000D01*
X64900000Y-35430000D02*
X63500000Y-35430000D01*
X62230000Y-38100000D02*
X44320000Y-38100000D01*
X44320000Y-35430000D02*
X44320000Y-50930000D01*
X44320000Y-50930000D02*
X64900000Y-50930000D01*
X62230000Y-38100000D02*
X62230000Y-35430000D01*
X64900000Y-38100000D02*
X62230000Y-38100000D01*
X64900000Y-36830000D02*
X64900000Y-35430000D01*
X64900000Y-48260000D02*
X44320000Y-48260000D01*
X62230000Y-35430000D02*
X44320000Y-35430000D01*
%TO.C,C1*%
X34136437Y-47390000D02*
X39892000Y-47390000D01*
X34136437Y-54210000D02*
X39892000Y-54210000D01*
X33072000Y-53145563D02*
X34136437Y-54210000D01*
X32044500Y-48952500D02*
X32832000Y-48952500D01*
X33072000Y-48454437D02*
X34136437Y-47390000D01*
X39892000Y-54210000D02*
X39892000Y-51860000D01*
X39892000Y-47390000D02*
X39892000Y-49740000D01*
X33072000Y-53145563D02*
X33072000Y-51860000D01*
X33072000Y-48454437D02*
X33072000Y-49740000D01*
X32438250Y-48558750D02*
X32438250Y-49346250D01*
%TO.C,C2*%
X39356420Y-61974000D02*
X39637580Y-61974000D01*
X39356420Y-62994000D02*
X39637580Y-62994000D01*
%TO.C,C4*%
X55353000Y-68428000D02*
X53003000Y-68428000D01*
X53790500Y-60580500D02*
X53790500Y-61368000D01*
X49597437Y-61608000D02*
X50883000Y-61608000D01*
X54288563Y-61608000D02*
X55353000Y-62672437D01*
X48533000Y-62672437D02*
X48533000Y-68428000D01*
X55353000Y-62672437D02*
X55353000Y-68428000D01*
X49597437Y-61608000D02*
X48533000Y-62672437D01*
X48533000Y-68428000D02*
X50883000Y-68428000D01*
X54184250Y-60974250D02*
X53396750Y-60974250D01*
X54288563Y-61608000D02*
X53003000Y-61608000D01*
%TO.C,C5*%
X65661000Y-62597420D02*
X65661000Y-62878580D01*
X64641000Y-62597420D02*
X64641000Y-62878580D01*
%TO.C,C6*%
X106551000Y-68961580D02*
X106551000Y-68680420D01*
X107571000Y-68961580D02*
X107571000Y-68680420D01*
%TO.C,C10*%
X105793000Y-65659580D02*
X105793000Y-65378420D01*
X104773000Y-65659580D02*
X104773000Y-65378420D01*
%TO.C,C11*%
X98423000Y-65659580D02*
X98423000Y-65378420D01*
X99443000Y-65659580D02*
X99443000Y-65378420D01*
%TO.C,C12*%
X96395000Y-75818420D02*
X96395000Y-76099580D01*
X95375000Y-75818420D02*
X95375000Y-76099580D01*
%TO.C,C13*%
X63641000Y-69783500D02*
X66661000Y-69783500D01*
X66661000Y-69783500D02*
X66661000Y-65573500D01*
X63641000Y-65573500D02*
X63641000Y-69783500D01*
%TO.C,C14*%
X76581580Y-73027000D02*
X76300420Y-73027000D01*
X76581580Y-72007000D02*
X76300420Y-72007000D01*
%TO.C,C15*%
X76581580Y-76071000D02*
X76300420Y-76071000D01*
X76581580Y-77091000D02*
X76300420Y-77091000D01*
%TO.C,C16*%
X76581580Y-74039000D02*
X76300420Y-74039000D01*
X76581580Y-75059000D02*
X76300420Y-75059000D01*
%TO.C,C17*%
X76581580Y-79123000D02*
X76300420Y-79123000D01*
X76581580Y-78103000D02*
X76300420Y-78103000D01*
%TO.C,C18*%
X105662000Y-73265420D02*
X105662000Y-73546580D01*
X106682000Y-73265420D02*
X106682000Y-73546580D01*
%TO.C,D1*%
X42920000Y-37084000D02*
X39080000Y-37084000D01*
X42920000Y-43544000D02*
X42440000Y-43544000D01*
X42920000Y-36964000D02*
X39080000Y-36964000D01*
X39080000Y-35704000D02*
X39080000Y-43544000D01*
X39560000Y-35704000D02*
X39080000Y-35704000D01*
X42920000Y-35704000D02*
X42920000Y-43544000D01*
X39080000Y-43544000D02*
X39560000Y-43544000D01*
X42920000Y-36844000D02*
X39080000Y-36844000D01*
X42440000Y-35704000D02*
X42920000Y-35704000D01*
%TO.C,D2*%
X41672000Y-66583000D02*
X41672000Y-70483000D01*
X43672000Y-66583000D02*
X41672000Y-66583000D01*
X43672000Y-66583000D02*
X43672000Y-70483000D01*
%TO.C,D4*%
X114666500Y-63571000D02*
X114666500Y-61651000D01*
X111981500Y-63571000D02*
X114666500Y-63571000D01*
X114666500Y-61651000D02*
X111981500Y-61651000D01*
%TO.C,J1*%
X38100000Y-45620000D02*
X38100000Y-35460000D01*
X38100000Y-35460000D02*
X30480000Y-35460000D01*
X30480000Y-35460000D02*
X30480000Y-45620000D01*
X36830000Y-35460000D02*
X36830000Y-45620000D01*
X30480000Y-45620000D02*
X38100000Y-45620000D01*
%TO.C,J2*%
X115316000Y-55813000D02*
X113986000Y-55813000D01*
X116586000Y-55813000D02*
X116586000Y-53153000D01*
X119186000Y-55813000D02*
X119186000Y-53153000D01*
X113986000Y-55813000D02*
X113986000Y-54483000D01*
X116586000Y-53153000D02*
X119186000Y-53153000D01*
X116586000Y-55813000D02*
X119186000Y-55813000D01*
%TO.C,J3*%
X119186000Y-60893000D02*
X119186000Y-58233000D01*
X110236000Y-60893000D02*
X108906000Y-60893000D01*
X111506000Y-60893000D02*
X119186000Y-60893000D01*
X111506000Y-60893000D02*
X111506000Y-58233000D01*
X108906000Y-60893000D02*
X108906000Y-59563000D01*
X111506000Y-58233000D02*
X119186000Y-58233000D01*
%TO.C,J4*%
X107382000Y-79054000D02*
X110042000Y-79054000D01*
X110042000Y-73914000D02*
X110042000Y-79054000D01*
X107382000Y-73914000D02*
X110042000Y-73914000D01*
X107382000Y-72644000D02*
X107382000Y-71314000D01*
X107382000Y-71314000D02*
X108712000Y-71314000D01*
X107382000Y-73914000D02*
X107382000Y-79054000D01*
%TO.C,J5*%
X104962000Y-73914000D02*
X104962000Y-79054000D01*
X102302000Y-71314000D02*
X103632000Y-71314000D01*
X102302000Y-73914000D02*
X104962000Y-73914000D01*
X102302000Y-79054000D02*
X104962000Y-79054000D01*
X102302000Y-73914000D02*
X102302000Y-79054000D01*
X102302000Y-72644000D02*
X102302000Y-71314000D01*
%TO.C,J6*%
X99762000Y-73914000D02*
X99762000Y-79054000D01*
X99762000Y-73914000D02*
X102422000Y-73914000D01*
X99762000Y-79054000D02*
X102422000Y-79054000D01*
X99762000Y-72644000D02*
X99762000Y-71314000D01*
X99762000Y-71314000D02*
X101092000Y-71314000D01*
X102422000Y-73914000D02*
X102422000Y-79054000D01*
%TO.C,J7*%
X97222000Y-79069000D02*
X99882000Y-79069000D01*
X97222000Y-71329000D02*
X98552000Y-71329000D01*
X97222000Y-73929000D02*
X97222000Y-79069000D01*
X97222000Y-72659000D02*
X97222000Y-71329000D01*
X97222000Y-73929000D02*
X99882000Y-73929000D01*
X99882000Y-73929000D02*
X99882000Y-79069000D01*
%TO.C,J8*%
X91761000Y-73854000D02*
X93091000Y-73854000D01*
X91761000Y-76454000D02*
X91761000Y-79054000D01*
X91761000Y-75184000D02*
X91761000Y-73854000D01*
X91761000Y-76454000D02*
X94421000Y-76454000D01*
X91761000Y-79054000D02*
X94421000Y-79054000D01*
X94421000Y-76454000D02*
X94421000Y-79054000D01*
%TO.C,J9*%
X89341000Y-76454000D02*
X89341000Y-79054000D01*
X86681000Y-73854000D02*
X88011000Y-73854000D01*
X86681000Y-79054000D02*
X89341000Y-79054000D01*
X86681000Y-76454000D02*
X89341000Y-76454000D01*
X86681000Y-76454000D02*
X86681000Y-79054000D01*
X86681000Y-75184000D02*
X86681000Y-73854000D01*
%TO.C,J10*%
X91881000Y-76454000D02*
X91881000Y-79054000D01*
X89221000Y-75184000D02*
X89221000Y-73854000D01*
X89221000Y-76454000D02*
X89221000Y-79054000D01*
X89221000Y-76454000D02*
X91881000Y-76454000D01*
X89221000Y-73854000D02*
X90551000Y-73854000D01*
X89221000Y-79054000D02*
X91881000Y-79054000D01*
%TO.C,J11*%
X84141000Y-75194000D02*
X84141000Y-73864000D01*
X84141000Y-76464000D02*
X84141000Y-79064000D01*
X84141000Y-79064000D02*
X86801000Y-79064000D01*
X84141000Y-73864000D02*
X85471000Y-73864000D01*
X86801000Y-76464000D02*
X86801000Y-79064000D01*
X84141000Y-76464000D02*
X86801000Y-76464000D01*
%TO.C,J12*%
X112903000Y-44577000D02*
X112903000Y-47177000D01*
X115503000Y-47177000D02*
X114173000Y-47177000D01*
X112903000Y-47177000D02*
X110303000Y-47177000D01*
X115503000Y-44577000D02*
X112903000Y-44577000D01*
X115503000Y-44577000D02*
X115503000Y-39437000D01*
X115503000Y-39437000D02*
X110303000Y-39437000D01*
X110303000Y-47177000D02*
X110303000Y-39437000D01*
X115503000Y-45847000D02*
X115503000Y-47177000D01*
%TO.C,J13*%
X90150000Y-44450000D02*
X90150000Y-39310000D01*
X90150000Y-39310000D02*
X84950000Y-39310000D01*
X90150000Y-44450000D02*
X87550000Y-44450000D01*
X87550000Y-47050000D02*
X84950000Y-47050000D01*
X90150000Y-47050000D02*
X88820000Y-47050000D01*
X87550000Y-44450000D02*
X87550000Y-47050000D01*
X90150000Y-45720000D02*
X90150000Y-47050000D01*
X84950000Y-47050000D02*
X84950000Y-39310000D01*
%TO.C,J14*%
X62230000Y-47050000D02*
X59630000Y-47050000D01*
X64830000Y-44450000D02*
X64830000Y-39310000D01*
X59630000Y-47050000D02*
X59630000Y-39310000D01*
X64830000Y-47050000D02*
X63500000Y-47050000D01*
X62230000Y-44450000D02*
X62230000Y-47050000D01*
X64830000Y-45720000D02*
X64830000Y-47050000D01*
X64830000Y-39310000D02*
X59630000Y-39310000D01*
X64830000Y-44450000D02*
X62230000Y-44450000D01*
%TO.C,J15*%
X107823000Y-30420000D02*
X100143000Y-30420000D01*
X110423000Y-31750000D02*
X110423000Y-33080000D01*
X110423000Y-33080000D02*
X109093000Y-33080000D01*
X100143000Y-30420000D02*
X100143000Y-33080000D01*
X107823000Y-33080000D02*
X100143000Y-33080000D01*
X107823000Y-30420000D02*
X107823000Y-33080000D01*
%TO.C,J16*%
X82470000Y-30420000D02*
X82470000Y-33080000D01*
X85070000Y-31750000D02*
X85070000Y-33080000D01*
X82470000Y-33080000D02*
X74790000Y-33080000D01*
X74790000Y-30420000D02*
X74790000Y-33080000D01*
X85070000Y-33080000D02*
X83740000Y-33080000D01*
X82470000Y-30420000D02*
X74790000Y-30420000D01*
%TO.C,J17*%
X57150000Y-33080000D02*
X49470000Y-33080000D01*
X57150000Y-30420000D02*
X57150000Y-33080000D01*
X59750000Y-33080000D02*
X58420000Y-33080000D01*
X49470000Y-30420000D02*
X49470000Y-33080000D01*
X57150000Y-30420000D02*
X49470000Y-30420000D01*
X59750000Y-31750000D02*
X59750000Y-33080000D01*
%TO.C,JP1*%
X80391000Y-62551000D02*
X81721000Y-62551000D01*
X81721000Y-62551000D02*
X81721000Y-63881000D01*
X79061000Y-65151000D02*
X81721000Y-65151000D01*
X79061000Y-65151000D02*
X79061000Y-67751000D01*
X79061000Y-67751000D02*
X81721000Y-67751000D01*
X81721000Y-65151000D02*
X81721000Y-67751000D01*
%TO.C,JP2*%
X76521000Y-65151000D02*
X79181000Y-65151000D01*
X79181000Y-62551000D02*
X79181000Y-63881000D01*
X76521000Y-65151000D02*
X76521000Y-67751000D01*
X77851000Y-62551000D02*
X79181000Y-62551000D01*
X76521000Y-67751000D02*
X79181000Y-67751000D01*
X79181000Y-65151000D02*
X79181000Y-67751000D01*
%TO.C,L1*%
X41377000Y-59529000D02*
X42577000Y-59529000D01*
X47777000Y-59529000D02*
X47777000Y-60929000D01*
X47777000Y-66329000D02*
X47777000Y-64929000D01*
X47777000Y-66329000D02*
X46577000Y-66329000D01*
X41377000Y-66329000D02*
X41377000Y-64929000D01*
X47777000Y-59529000D02*
X46577000Y-59529000D01*
X41377000Y-59529000D02*
X41377000Y-60929000D01*
X41377000Y-66329000D02*
X42577000Y-66329000D01*
%TO.C,R1*%
X33041000Y-67340564D02*
X33041000Y-65886436D01*
X31221000Y-67340564D02*
X31221000Y-65886436D01*
%TO.C,R2*%
X35309436Y-61314000D02*
X35763564Y-61314000D01*
X35309436Y-59844000D02*
X35763564Y-59844000D01*
%TO.C,R3*%
X39573564Y-59844000D02*
X39119436Y-59844000D01*
X39573564Y-61314000D02*
X39119436Y-61314000D01*
%TO.C,R5*%
X109397436Y-70331000D02*
X109851564Y-70331000D01*
X109397436Y-68861000D02*
X109851564Y-68861000D01*
%TO.C,R6*%
X102897000Y-69164564D02*
X102897000Y-68710436D01*
X104367000Y-69164564D02*
X104367000Y-68710436D01*
%TO.C,R7*%
X101827000Y-69164564D02*
X101827000Y-68710436D01*
X100357000Y-69164564D02*
X100357000Y-68710436D01*
%TO.C,R8*%
X97817000Y-69164564D02*
X97817000Y-68710436D01*
X99287000Y-69164564D02*
X99287000Y-68710436D01*
%TO.C,R9*%
X104367000Y-65154436D02*
X104367000Y-65608564D01*
X102897000Y-65154436D02*
X102897000Y-65608564D01*
%TO.C,R10*%
X101827000Y-65177936D02*
X101827000Y-65632064D01*
X100357000Y-65177936D02*
X100357000Y-65632064D01*
%TO.C,R11*%
X95403936Y-67337000D02*
X95858064Y-67337000D01*
X95403936Y-68807000D02*
X95858064Y-68807000D01*
%TO.C,R12*%
X109373936Y-66575000D02*
X109828064Y-66575000D01*
X109373936Y-68045000D02*
X109828064Y-68045000D01*
%TO.C,R13*%
X109350436Y-66013000D02*
X109804564Y-66013000D01*
X109350436Y-64543000D02*
X109804564Y-64543000D01*
%TO.C,R14*%
X80521436Y-71782000D02*
X80975564Y-71782000D01*
X80521436Y-73252000D02*
X80975564Y-73252000D01*
%TO.C,R15*%
X80521436Y-77316000D02*
X80975564Y-77316000D01*
X80521436Y-75846000D02*
X80975564Y-75846000D01*
%TO.C,R16*%
X80521436Y-73814000D02*
X80975564Y-73814000D01*
X80521436Y-75284000D02*
X80975564Y-75284000D01*
%TO.C,R17*%
X80521436Y-77878000D02*
X80975564Y-77878000D01*
X80521436Y-79348000D02*
X80975564Y-79348000D01*
%TO.C,R18*%
X62995436Y-76300000D02*
X63449564Y-76300000D01*
X62995436Y-74830000D02*
X63449564Y-74830000D01*
%TO.C,R19*%
X45312000Y-76450564D02*
X45312000Y-75996436D01*
X43842000Y-76450564D02*
X43842000Y-75996436D01*
%TO.C,R20*%
X46382000Y-76450564D02*
X46382000Y-75996436D01*
X47852000Y-76450564D02*
X47852000Y-75996436D01*
%TO.C,R21*%
X42772000Y-76450564D02*
X42772000Y-75996436D01*
X41302000Y-76450564D02*
X41302000Y-75996436D01*
%TO.C,U1*%
X84602000Y-58039000D02*
X84602000Y-61489000D01*
X94722000Y-58039000D02*
X94722000Y-56089000D01*
X84602000Y-58039000D02*
X84602000Y-56089000D01*
X94722000Y-58039000D02*
X94722000Y-59989000D01*
%TO.C,U2*%
X37465000Y-68727000D02*
X35515000Y-68727000D01*
X37465000Y-68727000D02*
X40915000Y-68727000D01*
X37465000Y-63607000D02*
X35515000Y-63607000D01*
X37465000Y-63607000D02*
X39415000Y-63607000D01*
%TO.C,U3*%
X67583000Y-62793000D02*
X67583000Y-66553000D01*
X67583000Y-66553000D02*
X68843000Y-66553000D01*
X74403000Y-66553000D02*
X73143000Y-66553000D01*
X74403000Y-60543000D02*
X74403000Y-66553000D01*
%TO.C,U4*%
X112589000Y-65930000D02*
X112589000Y-67580000D01*
X117789000Y-71230000D02*
X117789000Y-65930000D01*
X112589000Y-69580000D02*
X112589000Y-71230000D01*
X112589000Y-71230000D02*
X117789000Y-71230000D01*
X117789000Y-65930000D02*
X112589000Y-65930000D01*
X112589000Y-69580000D02*
G75*
G03*
X112589000Y-67580000I0J1000000D01*
G01*
%TO.C,C23*%
X70283000Y-40199437D02*
X71347437Y-39135000D01*
X71347437Y-45955000D02*
X77103000Y-45955000D01*
X77103000Y-39135000D02*
X77103000Y-41485000D01*
X69255500Y-40697500D02*
X70043000Y-40697500D01*
X70283000Y-40199437D02*
X70283000Y-41485000D01*
X70283000Y-44890563D02*
X71347437Y-45955000D01*
X77103000Y-45955000D02*
X77103000Y-43605000D01*
X69649250Y-40303750D02*
X69649250Y-41091250D01*
X71347437Y-39135000D02*
X77103000Y-39135000D01*
X70283000Y-44890563D02*
X70283000Y-43605000D01*
%TO.C,C24*%
X95683000Y-40199437D02*
X95683000Y-41485000D01*
X96747437Y-45955000D02*
X102503000Y-45955000D01*
X95683000Y-40199437D02*
X96747437Y-39135000D01*
X102503000Y-45955000D02*
X102503000Y-43605000D01*
X96747437Y-39135000D02*
X102503000Y-39135000D01*
X95683000Y-44890563D02*
X96747437Y-45955000D01*
X94655500Y-40697500D02*
X95443000Y-40697500D01*
X95683000Y-44890563D02*
X95683000Y-43605000D01*
X102503000Y-39135000D02*
X102503000Y-41485000D01*
X95049250Y-40303750D02*
X95049250Y-41091250D01*
%TO.C,C21*%
X46074437Y-39262000D02*
X51830000Y-39262000D01*
X51830000Y-39262000D02*
X51830000Y-41612000D01*
X51830000Y-46082000D02*
X51830000Y-43732000D01*
X45010000Y-45017563D02*
X46074437Y-46082000D01*
X44376250Y-40430750D02*
X44376250Y-41218250D01*
X45010000Y-40326437D02*
X46074437Y-39262000D01*
X46074437Y-46082000D02*
X51830000Y-46082000D01*
X45010000Y-45017563D02*
X45010000Y-43732000D01*
X45010000Y-40326437D02*
X45010000Y-41612000D01*
X43982500Y-40824500D02*
X44770000Y-40824500D01*
%TO.C,C22*%
X61156500Y-60580500D02*
X61156500Y-61368000D01*
X62719000Y-62672437D02*
X62719000Y-68428000D01*
X56963437Y-61608000D02*
X58249000Y-61608000D01*
X56963437Y-61608000D02*
X55899000Y-62672437D01*
X55899000Y-68428000D02*
X58249000Y-68428000D01*
X55899000Y-62672437D02*
X55899000Y-68428000D01*
X61654563Y-61608000D02*
X62719000Y-62672437D01*
X62719000Y-68428000D02*
X60369000Y-68428000D01*
X61654563Y-61608000D02*
X60369000Y-61608000D01*
X61550250Y-60974250D02*
X60762750Y-60974250D01*
%TD*%
M02*
