M48
; DRILL file {KiCad (6.0.0)} date Sun Jan  2 13:04:55 2022
; FORMAT={-:-/ absolute / inch / decimal}
; #@! TF.CreationDate,2022-01-02T13:04:55+02:00
; #@! TF.GenerationSoftware,Kicad,Pcbnew,(6.0.0)
; #@! TF.FileFunction,Plated,1,2,PTH
FMAT,2
INCH
; #@! TA.AperFunction,Plated,PTH,ViaDrill
T1C0.0236
; #@! TA.AperFunction,Plated,PTH,ComponentDrill
T2C0.0315
; #@! TA.AperFunction,Plated,PTH,ComponentDrill
T3C0.0394
; #@! TA.AperFunction,Plated,PTH,ComponentDrill
T4C0.0472
; #@! TA.AperFunction,Plated,PTH,ComponentDrill
T5C0.0598
; #@! TA.AperFunction,Plated,PTH,ComponentDrill
T6C0.1063
%
G90
G05
T1
X1.26Y-2.755
X1.26Y-2.81
X1.26Y-2.865
X1.32Y-2.755
X1.33Y-2.445
X1.38Y-2.755
X1.66Y-1.97
X1.66Y-2.04
X3.09Y-2.855
X3.09Y-2.935
X3.09Y-3.015
X3.09Y-3.095
X3.275Y-2.295
X3.455Y-2.7376
X3.555Y-2.7
X3.655Y-2.56
X3.73Y-2.56
X3.805Y-2.485
X4.08Y-2.48
X4.215Y-2.61
X4.235Y-2.45
X4.4Y-3.02
X4.4Y-3.085
X4.46Y-3.02
X4.46Y-3.085
X4.6Y-1.465
X4.6Y-1.525
X4.6Y-1.585
X4.6Y-1.645
X4.66Y-1.465
X4.66Y-1.525
X4.66Y-1.585
X4.66Y-1.645
T2
X1.8Y-1.45
X1.8Y-1.95
X1.9Y-1.45
X1.9Y-1.95
X2.0Y-1.45
X2.0Y-1.95
X2.1Y-1.45
X2.1Y-1.95
X2.2Y-1.45
X2.2Y-1.95
X2.3Y-1.45
X2.3Y-1.95
X2.4Y-1.45
X2.4Y-1.95
X2.5Y-1.45
X2.5Y-1.95
X2.7969Y-1.45
X2.7969Y-1.95
X2.8969Y-1.45
X2.8969Y-1.95
X2.9969Y-1.45
X2.9969Y-1.95
X3.0969Y-1.45
X3.0969Y-1.95
X3.1969Y-1.45
X3.1969Y-1.95
X3.2969Y-1.45
X3.2969Y-1.95
X3.3969Y-1.45
X3.3969Y-1.95
X3.4969Y-1.45
X3.4969Y-1.95
X3.795Y-1.45
X3.795Y-1.95
X3.895Y-1.45
X3.895Y-1.95
X3.995Y-1.45
X3.995Y-1.95
X4.095Y-1.45
X4.095Y-1.95
X4.195Y-1.45
X4.195Y-1.95
X4.295Y-1.45
X4.295Y-1.95
X4.395Y-1.45
X4.395Y-1.95
X4.485Y-2.55
X4.485Y-2.85
X4.495Y-1.45
X4.495Y-1.95
X4.585Y-2.55
X4.585Y-2.85
T3
X1.3559Y-2.27
X1.3559Y-2.87
X1.4559Y-2.27
X1.4559Y-2.87
X1.5559Y-2.27
X1.5559Y-2.87
X1.6559Y-2.27
X1.6559Y-2.87
X1.7559Y-2.27
X1.7559Y-2.87
X1.8559Y-2.27
X1.8559Y-2.87
X1.9559Y-2.27
X1.9559Y-2.87
X2.0Y-1.25
X2.0559Y-2.27
X2.0559Y-2.87
X2.1Y-1.25
X2.1559Y-2.27
X2.1559Y-2.87
X2.2Y-1.25
X2.2559Y-2.27
X2.2559Y-2.87
X2.3Y-1.25
X2.3559Y-2.27
X2.3559Y-2.87
X2.4Y-1.6
X2.4Y-1.7
X2.4Y-1.8
X2.4559Y-2.27
X2.4559Y-2.87
X2.5Y-1.6
X2.5Y-1.7
X2.5Y-1.8
X2.5559Y-2.27
X2.5559Y-2.87
X2.6559Y-2.27
X2.6559Y-2.87
X2.7559Y-2.27
X2.7559Y-2.87
X2.9969Y-1.25
X3.065Y-2.515
X3.065Y-2.615
X3.0969Y-1.25
X3.165Y-2.515
X3.165Y-2.615
X3.1969Y-1.25
X3.2969Y-1.25
X3.365Y-2.9604
X3.365Y-3.0604
X3.3969Y-1.6
X3.3969Y-1.7
X3.3969Y-1.8
X3.465Y-2.96
X3.465Y-3.06
X3.4969Y-1.6
X3.4969Y-1.7
X3.4969Y-1.8
X3.565Y-2.96
X3.565Y-3.06
X3.665Y-2.96
X3.665Y-3.06
X3.88Y-2.8606
X3.88Y-2.9606
X3.88Y-3.0606
X3.98Y-2.86
X3.98Y-2.96
X3.98Y-3.06
X3.995Y-1.25
X4.08Y-2.86
X4.08Y-2.96
X4.08Y-3.06
X4.095Y-1.25
X4.195Y-1.25
X4.28Y-2.86
X4.28Y-2.96
X4.28Y-3.06
X4.295Y-1.25
X4.34Y-2.345
X4.395Y-1.605
X4.395Y-1.705
X4.395Y-1.805
X4.44Y-2.345
X4.495Y-1.605
X4.495Y-1.705
X4.495Y-1.805
X4.54Y-2.145
X4.54Y-2.345
X4.64Y-2.145
X4.64Y-2.345
T4
X1.6142Y-1.36
X1.6142Y-1.76
T5
X1.35Y-1.4961
X1.35Y-1.6961
T6
X1.28Y-3.05
X1.29Y-1.26
X4.62Y-1.25
X4.62Y-3.04
T0
M30
