%TF.GenerationSoftware,KiCad,Pcbnew,(6.0.0)*%
%TF.CreationDate,2022-01-02T13:01:27+02:00*%
%TF.ProjectId,shematic,7368656d-6174-4696-932e-6b696361645f,rev?*%
%TF.SameCoordinates,Original*%
%TF.FileFunction,Soldermask,Bot*%
%TF.FilePolarity,Negative*%
%FSLAX46Y46*%
G04 Gerber Fmt 4.6, Leading zero omitted, Abs format (unit mm)*
G04 Created by KiCad (PCBNEW (6.0.0)) date 2022-01-02 13:01:27*
%MOMM*%
%LPD*%
G01*
G04 APERTURE LIST*
%ADD10R,1.600000X1.600000*%
%ADD11O,1.600000X1.600000*%
%ADD12R,2.400000X2.400000*%
%ADD13O,2.400000X2.400000*%
%ADD14R,3.000000X3.000000*%
%ADD15C,3.000000*%
%ADD16R,1.700000X1.700000*%
%ADD17O,1.700000X1.700000*%
%ADD18C,4.700000*%
G04 APERTURE END LIST*
D10*
%TO.C,A1*%
X70000000Y-57658000D03*
D11*
X67460000Y-57658000D03*
X64920000Y-57658000D03*
X62380000Y-57658000D03*
X59840000Y-57658000D03*
X57300000Y-57658000D03*
X54760000Y-57658000D03*
X52220000Y-57658000D03*
X49680000Y-57658000D03*
X47140000Y-57658000D03*
X44600000Y-57658000D03*
X42060000Y-57658000D03*
X39520000Y-57658000D03*
X36980000Y-57658000D03*
X34440000Y-57658000D03*
X34440000Y-72898000D03*
X36980000Y-72898000D03*
X39520000Y-72898000D03*
X42060000Y-72898000D03*
X44600000Y-72898000D03*
X47140000Y-72898000D03*
X49680000Y-72898000D03*
X52220000Y-72898000D03*
X54760000Y-72898000D03*
X57300000Y-72898000D03*
X59840000Y-72898000D03*
X62380000Y-72898000D03*
X64920000Y-72898000D03*
X67460000Y-72898000D03*
X70000000Y-72898000D03*
%TD*%
D10*
%TO.C,A2*%
X114173000Y-36830000D03*
D11*
X111633000Y-36830000D03*
X109093000Y-36830000D03*
X106553000Y-36830000D03*
X104013000Y-36830000D03*
X101473000Y-36830000D03*
X98933000Y-36830000D03*
X96393000Y-36830000D03*
X96393000Y-49530000D03*
X98933000Y-49530000D03*
X101473000Y-49530000D03*
X104013000Y-49530000D03*
X106553000Y-49530000D03*
X109093000Y-49530000D03*
X111633000Y-49530000D03*
X114173000Y-49530000D03*
%TD*%
D10*
%TO.C,A3*%
X88820000Y-36830000D03*
D11*
X86280000Y-36830000D03*
X83740000Y-36830000D03*
X81200000Y-36830000D03*
X78660000Y-36830000D03*
X76120000Y-36830000D03*
X73580000Y-36830000D03*
X71040000Y-36830000D03*
X71040000Y-49530000D03*
X73580000Y-49530000D03*
X76120000Y-49530000D03*
X78660000Y-49530000D03*
X81200000Y-49530000D03*
X83740000Y-49530000D03*
X86280000Y-49530000D03*
X88820000Y-49530000D03*
%TD*%
D10*
%TO.C,A4*%
X63500000Y-36830000D03*
D11*
X60960000Y-36830000D03*
X58420000Y-36830000D03*
X55880000Y-36830000D03*
X53340000Y-36830000D03*
X50800000Y-36830000D03*
X48260000Y-36830000D03*
X45720000Y-36830000D03*
X45720000Y-49530000D03*
X48260000Y-49530000D03*
X50800000Y-49530000D03*
X53340000Y-49530000D03*
X55880000Y-49530000D03*
X58420000Y-49530000D03*
X60960000Y-49530000D03*
X63500000Y-49530000D03*
%TD*%
D12*
%TO.C,D1*%
X41000000Y-34544000D03*
D13*
X41000000Y-44704000D03*
%TD*%
D14*
%TO.C,J1*%
X34290000Y-43080000D03*
D15*
X34290000Y-38000000D03*
%TD*%
D16*
%TO.C,J2*%
X115316000Y-54483000D03*
D17*
X117856000Y-54483000D03*
%TD*%
D16*
%TO.C,J3*%
X110236000Y-59563000D03*
D17*
X112776000Y-59563000D03*
X115316000Y-59563000D03*
X117856000Y-59563000D03*
%TD*%
D16*
%TO.C,J4*%
X108712000Y-72644000D03*
D17*
X108712000Y-75184000D03*
X108712000Y-77724000D03*
%TD*%
D16*
%TO.C,J5*%
X103632000Y-72644000D03*
D17*
X103632000Y-75184000D03*
X103632000Y-77724000D03*
%TD*%
D16*
%TO.C,J6*%
X101092000Y-72644000D03*
D17*
X101092000Y-75184000D03*
X101092000Y-77724000D03*
%TD*%
D16*
%TO.C,J7*%
X98552000Y-72659000D03*
D17*
X98552000Y-75199000D03*
X98552000Y-77739000D03*
%TD*%
D16*
%TO.C,J8*%
X93091000Y-75184000D03*
D17*
X93091000Y-77724000D03*
%TD*%
D16*
%TO.C,J9*%
X88011000Y-75184000D03*
D17*
X88011000Y-77724000D03*
%TD*%
D16*
%TO.C,J10*%
X90551000Y-75184000D03*
D17*
X90551000Y-77724000D03*
%TD*%
D16*
%TO.C,J11*%
X85471000Y-75194000D03*
D17*
X85471000Y-77734000D03*
%TD*%
D16*
%TO.C,J12*%
X114173000Y-45847000D03*
D17*
X111633000Y-45847000D03*
X114173000Y-43307000D03*
X111633000Y-43307000D03*
X114173000Y-40767000D03*
X111633000Y-40767000D03*
%TD*%
D16*
%TO.C,J13*%
X88820000Y-45720000D03*
D17*
X86280000Y-45720000D03*
X88820000Y-43180000D03*
X86280000Y-43180000D03*
X88820000Y-40640000D03*
X86280000Y-40640000D03*
%TD*%
D16*
%TO.C,J14*%
X63500000Y-45720000D03*
D17*
X60960000Y-45720000D03*
X63500000Y-43180000D03*
X60960000Y-43180000D03*
X63500000Y-40640000D03*
X60960000Y-40640000D03*
%TD*%
D16*
%TO.C,J15*%
X109093000Y-31750000D03*
D17*
X106553000Y-31750000D03*
X104013000Y-31750000D03*
X101473000Y-31750000D03*
%TD*%
D16*
%TO.C,J16*%
X83740000Y-31750000D03*
D17*
X81200000Y-31750000D03*
X78660000Y-31750000D03*
X76120000Y-31750000D03*
%TD*%
D16*
%TO.C,J17*%
X58420000Y-31750000D03*
D17*
X55880000Y-31750000D03*
X53340000Y-31750000D03*
X50800000Y-31750000D03*
%TD*%
D16*
%TO.C,JP1*%
X80391000Y-63881000D03*
D17*
X80391000Y-66421000D03*
%TD*%
D16*
%TO.C,JP2*%
X77851000Y-63881000D03*
D17*
X77851000Y-66421000D03*
%TD*%
D10*
%TO.C,U4*%
X113919000Y-72390000D03*
D11*
X116459000Y-72390000D03*
X116459000Y-64770000D03*
X113919000Y-64770000D03*
%TD*%
D18*
%TO.C,REF\u002A\u002A*%
X32766000Y-32004000D03*
%TD*%
%TO.C,*%
X117348000Y-77216000D03*
%TD*%
%TO.C,*%
X117348000Y-31750000D03*
%TD*%
%TO.C,*%
X32512000Y-77470000D03*
%TD*%
M02*
