%TF.GenerationSoftware,KiCad,Pcbnew,(6.0.0)*%
%TF.CreationDate,2022-01-02T13:01:26+02:00*%
%TF.ProjectId,shematic,7368656d-6174-4696-932e-6b696361645f,rev?*%
%TF.SameCoordinates,Original*%
%TF.FileFunction,Paste,Top*%
%TF.FilePolarity,Positive*%
%FSLAX46Y46*%
G04 Gerber Fmt 4.6, Leading zero omitted, Abs format (unit mm)*
G04 Created by KiCad (PCBNEW (6.0.0)) date 2022-01-02 13:01:26*
%MOMM*%
%LPD*%
G01*
G04 APERTURE LIST*
G04 Aperture macros list*
%AMRoundRect*
0 Rectangle with rounded corners*
0 $1 Rounding radius*
0 $2 $3 $4 $5 $6 $7 $8 $9 X,Y pos of 4 corners*
0 Add a 4 corners polygon primitive as box body*
4,1,4,$2,$3,$4,$5,$6,$7,$8,$9,$2,$3,0*
0 Add four circle primitives for the rounded corners*
1,1,$1+$1,$2,$3*
1,1,$1+$1,$4,$5*
1,1,$1+$1,$6,$7*
1,1,$1+$1,$8,$9*
0 Add four rect primitives between the rounded corners*
20,1,$1+$1,$2,$3,$4,$5,0*
20,1,$1+$1,$4,$5,$6,$7,0*
20,1,$1+$1,$6,$7,$8,$9,0*
20,1,$1+$1,$8,$9,$2,$3,0*%
G04 Aperture macros list end*
%ADD10RoundRect,0.225000X0.250000X-0.225000X0.250000X0.225000X-0.250000X0.225000X-0.250000X-0.225000X0*%
%ADD11RoundRect,0.250000X-1.500000X-0.550000X1.500000X-0.550000X1.500000X0.550000X-1.500000X0.550000X0*%
%ADD12RoundRect,0.225000X-0.225000X-0.250000X0.225000X-0.250000X0.225000X0.250000X-0.225000X0.250000X0*%
%ADD13RoundRect,0.250000X-0.550000X1.500000X-0.550000X-1.500000X0.550000X-1.500000X0.550000X1.500000X0*%
%ADD14RoundRect,0.225000X-0.250000X0.225000X-0.250000X-0.225000X0.250000X-0.225000X0.250000X0.225000X0*%
%ADD15RoundRect,0.250000X0.925000X-0.412500X0.925000X0.412500X-0.925000X0.412500X-0.925000X-0.412500X0*%
%ADD16RoundRect,0.225000X0.225000X0.250000X-0.225000X0.250000X-0.225000X-0.250000X0.225000X-0.250000X0*%
%ADD17R,1.200000X0.900000*%
%ADD18RoundRect,0.243750X0.243750X0.456250X-0.243750X0.456250X-0.243750X-0.456250X0.243750X-0.456250X0*%
%ADD19R,5.700000X1.600000*%
%ADD20RoundRect,0.250000X0.625000X-0.312500X0.625000X0.312500X-0.625000X0.312500X-0.625000X-0.312500X0*%
%ADD21RoundRect,0.250000X-0.262500X-0.450000X0.262500X-0.450000X0.262500X0.450000X-0.262500X0.450000X0*%
%ADD22RoundRect,0.250000X0.262500X0.450000X-0.262500X0.450000X-0.262500X-0.450000X0.262500X-0.450000X0*%
%ADD23RoundRect,0.250000X0.450000X-0.262500X0.450000X0.262500X-0.450000X0.262500X-0.450000X-0.262500X0*%
%ADD24RoundRect,0.250000X-0.450000X0.262500X-0.450000X-0.262500X0.450000X-0.262500X0.450000X0.262500X0*%
%ADD25RoundRect,0.150000X0.150000X-0.725000X0.150000X0.725000X-0.150000X0.725000X-0.150000X-0.725000X0*%
%ADD26RoundRect,0.150000X0.725000X0.150000X-0.725000X0.150000X-0.725000X-0.150000X0.725000X-0.150000X0*%
%ADD27R,1.500000X2.000000*%
%ADD28R,3.800000X2.000000*%
G04 APERTURE END LIST*
D10*
%TO.C,C3*%
X85217000Y-64148000D03*
X85217000Y-62598000D03*
%TD*%
D11*
%TO.C,C1*%
X33782000Y-50800000D03*
X39182000Y-50800000D03*
%TD*%
D12*
%TO.C,C2*%
X38722000Y-62484000D03*
X40272000Y-62484000D03*
%TD*%
D13*
%TO.C,C4*%
X51943000Y-62218000D03*
X51943000Y-67818000D03*
%TD*%
D14*
%TO.C,C5*%
X65151000Y-61963000D03*
X65151000Y-63513000D03*
%TD*%
D10*
%TO.C,C6*%
X107061000Y-69596000D03*
X107061000Y-68046000D03*
%TD*%
%TO.C,C10*%
X105283000Y-64744000D03*
X105283000Y-66294000D03*
%TD*%
%TO.C,C11*%
X98933000Y-66294000D03*
X98933000Y-64744000D03*
%TD*%
D14*
%TO.C,C12*%
X95885000Y-75184000D03*
X95885000Y-76734000D03*
%TD*%
D15*
%TO.C,C13*%
X65151000Y-68861000D03*
X65151000Y-65786000D03*
%TD*%
D16*
%TO.C,C14*%
X77216000Y-72517000D03*
X75666000Y-72517000D03*
%TD*%
%TO.C,C15*%
X77216000Y-76581000D03*
X75666000Y-76581000D03*
%TD*%
%TO.C,C16*%
X77216000Y-74549000D03*
X75666000Y-74549000D03*
%TD*%
%TO.C,C17*%
X77216000Y-78613000D03*
X75666000Y-78613000D03*
%TD*%
D14*
%TO.C,C18*%
X106172000Y-72631000D03*
X106172000Y-74181000D03*
%TD*%
D17*
%TO.C,D2*%
X42672000Y-67183000D03*
X42672000Y-70483000D03*
%TD*%
D18*
%TO.C,D4*%
X113919000Y-62611000D03*
X112044000Y-62611000D03*
%TD*%
D19*
%TO.C,L1*%
X44577000Y-65279000D03*
X44577000Y-60579000D03*
%TD*%
D20*
%TO.C,R1*%
X32131000Y-68076000D03*
X32131000Y-65151000D03*
%TD*%
D21*
%TO.C,R2*%
X34624000Y-60579000D03*
X36449000Y-60579000D03*
%TD*%
D22*
%TO.C,R3*%
X40259000Y-60579000D03*
X38434000Y-60579000D03*
%TD*%
D21*
%TO.C,R5*%
X108712000Y-69596000D03*
X110537000Y-69596000D03*
%TD*%
D23*
%TO.C,R6*%
X103632000Y-69850000D03*
X103632000Y-68025000D03*
%TD*%
%TO.C,R7*%
X101092000Y-69850000D03*
X101092000Y-68025000D03*
%TD*%
%TO.C,R8*%
X98552000Y-69850000D03*
X98552000Y-68025000D03*
%TD*%
D24*
%TO.C,R9*%
X103632000Y-64469000D03*
X103632000Y-66294000D03*
%TD*%
%TO.C,R10*%
X101092000Y-64492500D03*
X101092000Y-66317500D03*
%TD*%
D21*
%TO.C,R11*%
X94718500Y-68072000D03*
X96543500Y-68072000D03*
%TD*%
%TO.C,R12*%
X108688500Y-67310000D03*
X110513500Y-67310000D03*
%TD*%
%TO.C,R13*%
X108665000Y-65278000D03*
X110490000Y-65278000D03*
%TD*%
%TO.C,R14*%
X79836000Y-72517000D03*
X81661000Y-72517000D03*
%TD*%
%TO.C,R15*%
X79836000Y-76581000D03*
X81661000Y-76581000D03*
%TD*%
%TO.C,R16*%
X79836000Y-74549000D03*
X81661000Y-74549000D03*
%TD*%
%TO.C,R17*%
X79836000Y-78613000D03*
X81661000Y-78613000D03*
%TD*%
%TO.C,R18*%
X62310000Y-75565000D03*
X64135000Y-75565000D03*
%TD*%
D23*
%TO.C,R19*%
X44577000Y-77136000D03*
X44577000Y-75311000D03*
%TD*%
%TO.C,R20*%
X47117000Y-77136000D03*
X47117000Y-75311000D03*
%TD*%
%TO.C,R21*%
X42037000Y-77136000D03*
X42037000Y-75311000D03*
%TD*%
D25*
%TO.C,U1*%
X85217000Y-60614000D03*
X86487000Y-60614000D03*
X87757000Y-60614000D03*
X89027000Y-60614000D03*
X90297000Y-60614000D03*
X91567000Y-60614000D03*
X92837000Y-60614000D03*
X94107000Y-60614000D03*
X94107000Y-55464000D03*
X92837000Y-55464000D03*
X91567000Y-55464000D03*
X90297000Y-55464000D03*
X89027000Y-55464000D03*
X87757000Y-55464000D03*
X86487000Y-55464000D03*
X85217000Y-55464000D03*
%TD*%
D26*
%TO.C,U2*%
X40040000Y-68072000D03*
X40040000Y-66802000D03*
X40040000Y-65532000D03*
X40040000Y-64262000D03*
X34890000Y-64262000D03*
X34890000Y-65532000D03*
X34890000Y-66802000D03*
X34890000Y-68072000D03*
%TD*%
D27*
%TO.C,U3*%
X73293000Y-61493000D03*
D28*
X70993000Y-67793000D03*
D27*
X70993000Y-61493000D03*
X68693000Y-61493000D03*
%TD*%
D11*
%TO.C,C23*%
X70993000Y-42545000D03*
X76393000Y-42545000D03*
%TD*%
%TO.C,C24*%
X96393000Y-42545000D03*
X101793000Y-42545000D03*
%TD*%
%TO.C,C21*%
X45720000Y-42672000D03*
X51120000Y-42672000D03*
%TD*%
D13*
%TO.C,C22*%
X59309000Y-62218000D03*
X59309000Y-67818000D03*
%TD*%
M02*
